<svg xmlns="http://www.w3.org/2000/svg" viewBox="0 0 750 500"><g id="freepik--background-complete--inject-172"><path d="M395.39,454.28c-.14,0-.26-92.16-.26-205.81s.12-205.84.26-205.84.26,92.14.26,205.84S395.54,454.28,395.39,454.28Z" style="fill:#e0e0e0"></path><path d="M638.87,355.88a33.74,33.74,0,0,0-14.49-5c-2.37-.25-5-.18-6.86,1.26a1.41,1.41,0,0,0-.71,1.25,1.55,1.55,0,0,0,.67.85c5.9,4.5,14.82,5.07,21.39,1.62" style="fill:#e0e0e0"></path><path d="M638.5,355.47a71.25,71.25,0,0,1-9.36-8.23,23.7,23.7,0,0,1-5.87-10.86,4.39,4.39,0,0,1,.46-3.63c7.47,5.83,13.33,13.36,14.77,22.72" style="fill:#e0e0e0"></path><path d="M638.8,355.83a33.61,33.61,0,0,1,.17-12.29,16.62,16.62,0,0,1,6.55-10.15c1.29,3,.73,6.49-.18,9.64a46.68,46.68,0,0,1-6.49,13.67" style="fill:#e0e0e0"></path><path d="M646.11,368.94c-4.44.54-8.31,2.88-11.62,5.88a22,22,0,0,0-6.65,11.42c4.35-.27,8-3.34,10.73-6.79s4.54-7.22,7.48-10.44" style="fill:#e0e0e0"></path><path d="M647.7,371A28.69,28.69,0,0,1,651,343.91c2.53,9,1.6,19.17-3.31,27.13" style="fill:#e0e0e0"></path><path d="M657.37,382.55A20.73,20.73,0,0,0,637.54,394c-.24.49-.46,1.11-.13,1.55a1.46,1.46,0,0,0,1.31.39c3.91-.25,7.37-2.6,10.23-5.28s5.35-5.77,8.51-8.08" style="fill:#e0e0e0"></path><path d="M657.06,381.92a36.93,36.93,0,0,1-.37-20.63c.73-2.65,1.95-5.45,4.4-6.69a.88.88,0,0,1,.68-.12.85.85,0,0,1,.42.49,12.37,12.37,0,0,1,1,5.92,36.93,36.93,0,0,1-.93,6c-.77,3.66-1.18,7.6-3.19,10.75a20.78,20.78,0,0,0-1.28,2.37c-.38.8-.38,1.08-.73,1.72" style="fill:#e0e0e0"></path><path d="M682.65,385.73c-1.9-7.21.12-16,4.66-21.86.34-.44.78-.91,1.33-.86.83.08,1.05,1.2,1,2a39.45,39.45,0,0,1-7,20.68" style="fill:#e0e0e0"></path><path d="M685,387.31a31.82,31.82,0,0,0,26.1-5.31,21.12,21.12,0,0,0-14.13-1.73c-4.72,1.08-9,3.19-12,7" style="fill:#e0e0e0"></path><path d="M686.9,382.51c4.91-8,14.32-13.22,23.69-13.7-1.08,3.81-4.21,6.78-7.75,8.57s-7.48,2.57-11.37,3.32c-1.51.3-3.59.62-4.57,1.81" style="fill:#e0e0e0"></path><path d="M683.14,359.21a69.09,69.09,0,0,0,3-13.88c.36-4.72-.31-9.66-2.77-13.72-4.58,8.87-5,19.23-.4,28.07" style="fill:#e0e0e0"></path><path d="M698.57,351.41c5.36-9.74,16.3-17.53,27.36-18.62-4.27,10.63-15.91,18.85-27.36,18.62" style="fill:#e0e0e0"></path><path d="M695.2,353.32c8,1.21,14.8,6.32,22.27,9.42a10.06,10.06,0,0,0,5,1,3.94,3.94,0,0,0,2.47-7,10.71,10.71,0,0,0-3.66-2.22c-8.14-3.39-16.86-3.47-25.43-1.42" style="fill:#e0e0e0"></path><path d="M690.57,358.92c1.81.52,2.43,1.46,3.86,2.68a41.77,41.77,0,0,0,16.89,8.68c.65.16,1.5.22,1.82-.36s-.08-1.13-.44-1.58a23.23,23.23,0,0,0-10.2-6.92c-3.9-1.46-7.28-3.21-11.93-2.83" style="fill:#e0e0e0"></path><path d="M685.35,325.06a32,32,0,0,0,24.51,8.34A1.71,1.71,0,0,0,711,333c.61-.67-.13-1.71-.85-2.27-7.2-5.62-15.93-8-24.78-5.67" style="fill:#e0e0e0"></path><path d="M691.54,322.8a34.13,34.13,0,0,1,30.58-5.05,24.24,24.24,0,0,1-14.57,6.4,46.26,46.26,0,0,1-16-1.35" style="fill:#e0e0e0"></path><path d="M689.08,307.23c-.71-7.19-.25-12.87-.75-20.09,0-.58-.16-1.27-.7-1.48-.75-.29-1.38.63-1.63,1.4a23,23,0,0,0,3.07,20" style="fill:#e0e0e0"></path><path d="M688.56,308a42.26,42.26,0,0,0,11.92-11.58c2.35-3.22,4.33-7.08,3.8-11a11.36,11.36,0,0,0-8.59,4.27,24.09,24.09,0,0,0-4.39,8.81c-.95,3.17-1.62,6.42-2.74,9.53" style="fill:#e0e0e0"></path><path d="M700.27,304.78a96.06,96.06,0,0,0,29.32-17.29c-3.5-1.41-7.51-.57-11,.85a34.67,34.67,0,0,0-18.45,16.36" style="fill:#e0e0e0"></path><path d="M691.85,312c5.42.6,10.91,1,16.28.08s10.27-3,15.2-5.05a1.81,1.81,0,0,0,1-.78,1.21,1.21,0,0,0-.37-1.3,3.24,3.24,0,0,0-1.3-.61c-5.36-1.5-11.15-.8-16.42,1A76.15,76.15,0,0,0,691.85,312" style="fill:#e0e0e0"></path><path d="M661,325.31c-3.69-7.46-3.45-16.16-.26-23.84,2.24,3.42,2.52,7.78,2.11,11.85s-1.65,8.26-1.74,12.36" style="fill:#e0e0e0"></path><path d="M646.2,317.87a33.22,33.22,0,0,0-24.7,10.52A23,23,0,0,0,635,325.88a68,68,0,0,0,11.59-7.76" style="fill:#e0e0e0"></path><path d="M636.28,314.55c-4.51-.37-8.85-.93-13.19.4A15.84,15.84,0,0,0,613,323.48a23.88,23.88,0,0,0,12.36-2.34,71,71,0,0,0,10.88-6.59" style="fill:#e0e0e0"></path><path d="M651,314.7c-4.05-2.66-8.22-5.36-12.94-6.47s-10.2-.28-13.5,3.28c3.83,2.24,8.47,2.51,12.9,2.5s9.87-.05,14.05,1.43" style="fill:#e0e0e0"></path><path d="M651,314.92c-6.94-6.82-9.57-19.05-6.78-28.37A43.19,43.19,0,0,1,651,314.92" style="fill:#e0e0e0"></path><path d="M670.06,295.62c1.31-3.05,2.23-6.24,3.4-9.33a26.94,26.94,0,0,1,4.85-8.6,12.82,12.82,0,0,1,8.6-4.46,34.58,34.58,0,0,1-16.68,22.43" style="fill:#e0e0e0"></path><path d="M666.61,299.64c-2.16-3-4.67-7-7.6-9.25s-6.76-3.57-10.34-2.72a24.07,24.07,0,0,0,17.94,12" style="fill:#e0e0e0"></path><path d="M667.3,295.86a51.1,51.1,0,0,1-3.42-11.08,17.32,17.32,0,0,1,1.73-11.27c3.81,7.2,5,14.93,1.89,22.44" style="fill:#e0e0e0"></path><path d="M670.1,273.51c2.15-7.13,8.69-12.39,15.74-14.8a6,6,0,0,1,2.76-.41,2.4,2.4,0,0,1,2,1.7c.25,1.21-.75,2.3-1.69,3.11a53.65,53.65,0,0,1-18.85,10.4" style="fill:#e0e0e0"></path><path d="M670.18,267.68c.27-4.6.56-9.27,2.05-13.63s4.38-8.45,8.58-10.35c.71,4.64-1.34,9.26-3.81,13.26s-5.45,7.78-6.94,12.24" style="fill:#e0e0e0"></path><path d="M670.06,270.84c-1.78-5.2-2-11.8-5.08-16.33-2.18-3.17-5.66-5.32-7.54-8.68a13.24,13.24,0,0,0,.44,9.85,28.73,28.73,0,0,0,5.76,8.25c2.31,2.46,4.28,4.31,6.42,6.91" style="fill:#e0e0e0"></path><path d="M670.1,424c-.14,0-.26-34.69-.27-77.47s.09-77.48.23-77.48.26,34.69.27,77.48S670.24,424,670.1,424Z" style="fill:#e0e0e0"></path><path d="M700.41,320.07a7.14,7.14,0,0,1-1.3.49l-3.59,1.21c-3,1-7.19,2.53-11.7,4.38s-8.68,3.47-11.08,5.55a8.08,8.08,0,0,0-2.23,2.94c-.34.82-.4,1.32-.45,1.31a1.3,1.3,0,0,1,0-.37,6,6,0,0,1,.25-1,7.86,7.86,0,0,1,2.17-3.14,19.34,19.34,0,0,1,4.81-3c1.93-.9,4.06-1.84,6.32-2.77,4.53-1.85,8.72-3.3,11.78-4.24,1.53-.48,2.78-.83,3.64-1.07A8.46,8.46,0,0,1,700.41,320.07Z" style="fill:#e0e0e0"></path><path d="M710.35,295.66s-.12.15-.37.39l-1.11,1.05-4.16,3.78-13.83,12.31c-5.4,4.81-10.06,9.4-13.3,12.86-1.61,1.72-2.89,3.15-3.76,4.15l-1,1.15a2.33,2.33,0,0,1-.37.38,2.43,2.43,0,0,1,.3-.44c.21-.28.51-.7.93-1.21.83-1,2.06-2.51,3.65-4.27a174.9,174.9,0,0,1,13.23-13c5.42-4.8,10.35-9.11,13.93-12.21l4.26-3.66,1.18-1A2.51,2.51,0,0,1,710.35,295.66Z" style="fill:#e0e0e0"></path><path d="M685.05,318.08c-.14-.07,1-2.67,2.11-6s1.67-6.08,1.82-6.05a20.41,20.41,0,0,1-1.34,6.21,42.37,42.37,0,0,1-1.68,4.17A6.19,6.19,0,0,1,685.05,318.08Z" style="fill:#e0e0e0"></path><path d="M670.13,339.07a6,6,0,0,1-.83-1l-2.13-2.74c-1.8-2.31-4.27-5.5-7-9s-5.33-6.63-7.18-8.9l-2.18-2.7a6.89,6.89,0,0,1-.75-1,5.78,5.78,0,0,1,.9.91c.56.6,1.35,1.49,2.3,2.59,1.92,2.21,4.52,5.32,7.3,8.82s5.21,6.73,6.93,9.1c.86,1.19,1.54,2.15,2,2.83A6.64,6.64,0,0,1,670.13,339.07Z" style="fill:#e0e0e0"></path><path d="M663.48,330.54a12.29,12.29,0,0,1-2.78-5.21,14.68,14.68,0,0,1-.63-5.26l.22,0c-.1.4-.17.61-.21.61s-.05-.23,0-.65l.22,0a23.52,23.52,0,0,0,.89,5.11A40.19,40.19,0,0,0,663.48,330.54Z" style="fill:#e0e0e0"></path><path d="M654.9,319.75a8.72,8.72,0,0,0-1.94-1.13,12.79,12.79,0,0,0-5.4-.43,34.46,34.46,0,0,0-5.44.87,17.15,17.15,0,0,1-2.23.54,7.77,7.77,0,0,1,2.14-.88,24.79,24.79,0,0,1,5.49-1,11.76,11.76,0,0,1,5.57.6A3.36,3.36,0,0,1,654.9,319.75Z" style="fill:#e0e0e0"></path><path d="M652.87,317.13c0,.08-1.14-.45-3-1.08a30.05,30.05,0,0,0-15-1.15c-1.92.34-3.08.7-3.11.62a3.05,3.05,0,0,1,.79-.34,19.9,19.9,0,0,1,2.25-.63,26.66,26.66,0,0,1,15.2,1.16,18.62,18.62,0,0,1,2.13,1A3.13,3.13,0,0,1,652.87,317.13Z" style="fill:#e0e0e0"></path><path d="M670.06,306.07a64.45,64.45,0,0,1-2.17-7.55,61.72,61.72,0,0,1-1.69-7.67,61.1,61.1,0,0,1,2.18,7.55A60.51,60.51,0,0,1,670.06,306.07Z" style="fill:#e0e0e0"></path><path d="M670.2,306.07a35.73,35.73,0,0,0-2.41-4.52,20.27,20.27,0,0,0-3.54-3.66,3.4,3.4,0,0,1,1.37.71,11,11,0,0,1,2.58,2.66A10,10,0,0,1,670.2,306.07Z" style="fill:#e0e0e0"></path><path d="M670.1,405.49c-.06,0-.16-.83-.55-2.31a32.67,32.67,0,0,0-2.32-6c-2.39-4.9-6.76-11.11-12.3-17.33-2.74-3.14-5.41-6.1-7.67-8.93a63.62,63.62,0,0,1-5.48-7.91,36.63,36.63,0,0,1-2.77-5.87c-.26-.73-.44-1.29-.55-1.68a2.52,2.52,0,0,1-.14-.6s.3.79.87,2.21a43,43,0,0,0,2.89,5.76,67.4,67.4,0,0,0,5.54,7.8c2.27,2.8,4.94,5.75,7.69,8.89,5.56,6.24,9.91,12.53,12.24,17.5a30.28,30.28,0,0,1,2.19,6.12,17.4,17.4,0,0,1,.31,1.74A3.49,3.49,0,0,1,670.1,405.49Z" style="fill:#e0e0e0"></path><path d="M697.49,374.55a12.49,12.49,0,0,1-1.44.81,30.42,30.42,0,0,0-3.72,2.46,42,42,0,0,0-4.89,4.46c-1.72,1.81-3.48,3.92-5.29,6.17-3.61,4.53-7,8.54-9,11.73-1,1.59-1.77,2.93-2.26,3.87a15.37,15.37,0,0,1-.79,1.44s0-.15.13-.41.25-.64.48-1.12a36.1,36.1,0,0,1,2.14-4c2-3.28,5.31-7.34,8.91-11.86,1.81-2.26,3.6-4.37,5.35-6.18a40.14,40.14,0,0,1,5-4.43,26.92,26.92,0,0,1,3.84-2.35c.48-.24.87-.38,1.12-.49S697.48,374.53,697.49,374.55Z" style="fill:#e0e0e0"></path><path d="M698,384.59a22.38,22.38,0,0,1-3,.44,39.2,39.2,0,0,0-7.19,1.42,21.51,21.51,0,0,0-6.45,3.38c-1.48,1.15-2.18,2.1-2.25,2s.12-.28.45-.7a11.41,11.41,0,0,1,1.58-1.62,19.55,19.55,0,0,1,6.51-3.58,32.49,32.49,0,0,1,7.32-1.29A16,16,0,0,1,698,384.59Z" style="fill:#e0e0e0"></path><path d="M680,390.77c-.16-.09,1.21-2.18,2.27-5s1.23-5.32,1.41-5.29a5,5,0,0,1,0,1.62,17.4,17.4,0,0,1-.89,3.84,18.48,18.48,0,0,1-1.76,3.52A5,5,0,0,1,680,390.77Z" style="fill:#e0e0e0"></path><path d="M706.36,347.6a1.79,1.79,0,0,1-.48.26l-1.43.65c-.62.27-1.38.61-2.24,1.06s-1.85.89-2.9,1.52l-1.65.94c-.58.33-1.14.72-1.75,1.1-1.22.74-2.44,1.65-3.75,2.58a71.52,71.52,0,0,0-7.82,6.89,70,70,0,0,0-6.61,8c-.89,1.34-1.75,2.59-2.45,3.84-.36.61-.73,1.19-1,1.78s-.6,1.15-.89,1.68c-.59,1.07-1,2.08-1.42,2.95s-.74,1.64-1,2.28l-.6,1.44a3.1,3.1,0,0,1-.24.5,1.87,1.87,0,0,1,.14-.53l.52-1.48c.22-.65.5-1.43.9-2.32s.79-1.92,1.37-3c.27-.55.56-1.12.86-1.72s.67-1.18,1-1.8c.69-1.27,1.55-2.54,2.43-3.89a67,67,0,0,1,6.63-8.14,68.54,68.54,0,0,1,7.91-6.91c1.32-.92,2.56-1.83,3.8-2.56.61-.37,1.19-.76,1.77-1.08l1.68-.92c1.06-.61,2.08-1,3-1.47s1.65-.74,2.28-1l1.47-.56A2.73,2.73,0,0,1,706.36,347.6Z" style="fill:#e0e0e0"></path><path d="M684.68,362.13a3.56,3.56,0,0,1,1.19-1.78,7.56,7.56,0,0,1,4.81-1.84,13.12,13.12,0,0,1,5.05,1,6.83,6.83,0,0,1,1.91.93,11.84,11.84,0,0,1-2-.6,15.65,15.65,0,0,0-4.93-.82,7.82,7.82,0,0,0-4.58,1.61A13.78,13.78,0,0,0,684.68,362.13Z" style="fill:#e0e0e0"></path><path d="M681.44,365.47a12.75,12.75,0,0,0,1.06-9.07,3,3,0,0,1,.56,1.29,9.21,9.21,0,0,1-.77,6.65C681.86,365.11,681.49,365.51,681.44,365.47Z" style="fill:#e0e0e0"></path><path d="M646.14,410.46c.75,13.26,4.74,26.74,10.89,40.37h26.72c5.86-13.49,9.57-27,10.24-40.37Z" style="fill:#e0e0e0"></path><path d="M689.66,431.91c0,.14-8.8.25-19.65.25s-19.65-.11-19.65-.25,8.79-.25,19.65-.25S689.66,431.78,689.66,431.91Z" style="fill:#fafafa"></path><path d="M689.06,436.72c0,.13-8.25.25-18.42.25s-18.42-.12-18.42-.25,8.24-.25,18.42-.25S689.06,436.58,689.06,436.72Z" style="fill:#fafafa"></path><path d="M657.46,419.17a75.89,75.89,0,0,1,0,12.31,75.89,75.89,0,0,1,0-12.31Z" style="fill:#fafafa"></path><path d="M671.77,419.17a81.28,81.28,0,0,1,0,12.74,81.28,81.28,0,0,1,0-12.74Z" style="fill:#fafafa"></path><path d="M685.21,419.06a84.63,84.63,0,0,1,0,13,84.62,84.62,0,0,1,0-13Z" style="fill:#fafafa"></path><path d="M693.14,419.17c0,.13-10.32.25-23,.25s-23-.12-23-.25,10.31-.25,23-.25S693.14,419,693.14,419.17Z" style="fill:#fafafa"></path><rect x="421.94" y="167.18" width="52.44" height="54.67" style="fill:#e0e0e0"></rect><rect x="418.38" y="167.18" width="52.44" height="54.67" style="fill:#fafafa"></rect><path d="M470.84,221.87H418.37v-54.7h52.47Zm-52.44,0h52.41V167.2H418.4Z" style="fill:#e0e0e0"></path><rect x="425.43" y="174.53" width="38.34" height="39.97" style="fill:#fff"></rect><path d="M425.43,214.77a6.59,6.59,0,0,1-.94,1.1c-.62.64-1.48,1.52-2.44,2.47s-1.85,1.8-2.51,2.4a6.34,6.34,0,0,1-1.1.92,6,6,0,0,1,.94-1.1c.61-.64,1.47-1.52,2.44-2.47s1.86-1.8,2.51-2.4A5.8,5.8,0,0,1,425.43,214.77Z" style="fill:#e0e0e0"></path><path d="M463.78,214.67a6.42,6.42,0,0,1,1.1,1c.64.61,1.52,1.47,2.47,2.43s1.79,1.86,2.4,2.51a5.77,5.77,0,0,1,.92,1.11,6.59,6.59,0,0,1-1.1-.94c-.64-.62-1.52-1.48-2.47-2.45s-1.8-1.85-2.4-2.51A5.35,5.35,0,0,1,463.78,214.67Z" style="fill:#e0e0e0"></path><path d="M463.67,174.64a6.55,6.55,0,0,1,.95-1.1c.61-.65,1.47-1.52,2.44-2.47s1.85-1.8,2.5-2.4a5.65,5.65,0,0,1,1.11-.92,6.35,6.35,0,0,1-.94,1.09c-.61.65-1.48,1.53-2.45,2.48s-1.85,1.8-2.5,2.4A6,6,0,0,1,463.67,174.64Z" style="fill:#e0e0e0"></path><path d="M425.33,174.74a6.12,6.12,0,0,1-1.1-1c-.65-.61-1.52-1.47-2.47-2.44s-1.8-1.85-2.4-2.5a5.65,5.65,0,0,1-.92-1.11,6.35,6.35,0,0,1,1.09.94c.65.61,1.53,1.48,2.48,2.45s1.8,1.85,2.4,2.51A6.34,6.34,0,0,1,425.33,174.74Z" style="fill:#e0e0e0"></path><path d="M463.67,214.5s0-.07,0-.19v-.56c0-.5,0-1.22,0-2.16,0-1.89,0-4.64,0-8.14,0-7,0-17-.08-28.92l.15.15-38.23,0h0l.17-.17c0,14.67,0,28.4,0,40l-.15-.14,27.69.07,7.78,0,2.06,0h0l-2,0-7.75,0-27.78.08h-.14v-.15c0-11.57,0-25.3,0-40v-.17h.18l38.23,0h.15v.14c0,12-.06,22-.08,29,0,3.49,0,6.23,0,8.11,0,.93,0,1.64,0,2.13,0,.23,0,.41,0,.55A.86.86,0,0,1,463.67,214.5Z" style="fill:#e0e0e0"></path><rect x="438.21" y="188.12" width="12.79" height="12.79" style="fill:#ebebeb"></rect><rect x="423.77" y="77.88" width="52.44" height="54.67" style="fill:#e0e0e0"></rect><rect x="420.21" y="77.88" width="52.44" height="54.67" style="fill:#fafafa"></rect><path d="M472.67,132.56H420.2V77.86h52.47Zm-52.44,0h52.41V77.89H420.23Z" style="fill:#e0e0e0"></path><rect x="427.26" y="85.23" width="38.34" height="39.97" style="fill:#fff"></rect><path d="M427.26,125.46a5.77,5.77,0,0,1-.94,1.1c-.61.65-1.47,1.52-2.44,2.47s-1.85,1.8-2.5,2.4a6,6,0,0,1-1.11.92,6.22,6.22,0,0,1,.94-1.09c.61-.65,1.47-1.52,2.44-2.48s1.86-1.8,2.51-2.4A6.82,6.82,0,0,1,427.26,125.46Z" style="fill:#e0e0e0"></path><path d="M465.61,125.36a7.06,7.06,0,0,1,1.1,1c.64.61,1.52,1.47,2.47,2.44s1.8,1.85,2.4,2.5a6.59,6.59,0,0,1,.92,1.11,6.59,6.59,0,0,1-1.1-.94c-.64-.61-1.52-1.48-2.47-2.44s-1.8-1.86-2.4-2.51A6,6,0,0,1,465.61,125.36Z" style="fill:#e0e0e0"></path><path d="M465.5,85.33a7.06,7.06,0,0,1,.95-1.1c.61-.64,1.47-1.52,2.44-2.47s1.85-1.79,2.5-2.39a6.41,6.41,0,0,1,1.11-.93,6.15,6.15,0,0,1-.94,1.1c-.61.64-1.48,1.52-2.44,2.47s-1.86,1.8-2.51,2.41A5.65,5.65,0,0,1,465.5,85.33Z" style="fill:#e0e0e0"></path><path d="M427.16,85.43a6.15,6.15,0,0,1-1.1-.94c-.65-.62-1.52-1.48-2.47-2.44s-1.8-1.85-2.4-2.51a5.8,5.8,0,0,1-.92-1.1,5.36,5.36,0,0,1,1.09.94c.65.61,1.53,1.47,2.48,2.44s1.8,1.86,2.4,2.51A5.8,5.8,0,0,1,427.16,85.43Z" style="fill:#e0e0e0"></path><path d="M465.5,125.2s0-.07,0-.2v-.56c0-.5,0-1.22,0-2.15,0-1.9,0-4.65,0-8.15,0-7,0-17-.08-28.91l.15.15-38.23,0h0l.17-.17c0,14.67,0,28.39,0,40l-.15-.15,27.69.08,7.78,0,2.06,0h.53c.12,0,.18,0,.18,0h-.68l-2,0-7.75,0-27.78.07h-.14v-.14c0-11.58,0-25.3,0-40v-.17h.18l38.23,0h.15v.15c0,12-.06,22-.07,29,0,3.48,0,6.22,0,8.11,0,.92,0,1.63,0,2.13,0,.23,0,.41,0,.54S465.51,125.2,465.5,125.2Z" style="fill:#e0e0e0"></path><rect x="440.04" y="98.81" width="12.79" height="12.79" style="fill:#ebebeb"></rect><path d="M708.8,71.17s0-.08,0-.23,0-.39,0-.65c0-.6,0-1.43,0-2.48,0-2.17-.06-5.26-.1-9.12l.19.18L667.71,59c-.26.24.36-.31.29-.26h0v6.39c0,2.08,0,4.12,0,6.08l-.28-.25,29.34.12,8.6.07,2.32,0,.83,0a3.63,3.63,0,0,1-.76,0l-2.26,0-8.54.07-29.53.12h-.29V65.09c0-1,0-2.1,0-3.17V58.7h0l.3-.26,41.09.09h.2v.17c0,3.9-.08,7-.11,9.23,0,1,0,1.84,0,2.44A4.17,4.17,0,0,1,708.8,71.17Z" style="fill:#e0e0e0"></path><rect x="657.79" y="71.17" width="41.1" height="12.48" style="fill:#f5f5f5"></rect><rect x="670.33" y="164.46" width="41.44" height="12.48" style="fill:#f5f5f5"></rect><rect x="433.8" y="341.34" width="36.27" height="12.48" style="fill:#f5f5f5"></rect><rect x="172.09" y="146.42" width="36.27" height="12.48" style="fill:#f5f5f5"></rect><rect x="59.67" y="65.49" width="78.3" height="129.61" style="fill:#e0e0e0"></rect><rect x="57.07" y="65.49" width="78.3" height="129.61" style="fill:#ebebeb"></rect><rect x="60.4" y="68.12" width="71.63" height="124.36" style="fill:#fafafa"></rect><rect x="74.04" y="84.28" width="44.05" height="92.04" style="fill:#ebebeb"></rect><path d="M74,143.75c-.1-8.6,7.63-17,16.14-18.19,4.06-.58,8.38.23,12.17-1.33,6.77-2.77,8.93-11.77,15.74-14.44l.31,66.53H74Z" style="fill:#e0e0e0"></path><path d="M372.12,345.65a1.3,1.3,0,0,1,0-.23l0-.66c0-.6,0-1.43,0-2.47,0-2.18-.05-5.27-.09-9.12l.17.17-36.27.09.26-.26h0v6.37q0,3.13,0,6.09l-.25-.25,25.89.11,7.6.07,2.05,0,.73,0a5.37,5.37,0,0,1-.67,0l-2,0-7.53.07-26.07.12h-.25v-.25q0-3,0-6.09v-6.37h0l.26-.26,36.27.08h.17v.18c0,3.89-.07,7-.09,9.22,0,1,0,1.84,0,2.44S372.13,345.66,372.12,345.65Z" style="fill:#e0e0e0"></path><rect x="327.1" y="345.65" width="36.27" height="12.48" style="fill:#f5f5f5"></rect><path d="M81.33,247.25a1,1,0,0,1,0-.23l0-.65,0-2.48c0-2.17,0-5.26-.09-9.12l.17.17L45.06,235l.26-.26h0v6.38c0,2.08,0,4.12,0,6.08l-.25-.25,25.89.12,7.6.07,2,0,.73,0a5.37,5.37,0,0,1-.67,0l-2,0-7.53.07-26.07.11h-.25v-.26c0-2,0-4,0-6.08v-6.38h0c-.06.06.5-.49.26-.26l36.27.09h.18v.17L81.41,244l0,2.43C81.35,247,81.34,247.26,81.33,247.25Z" style="fill:#e0e0e0"></path><rect x="36.31" y="247.25" width="36.27" height="12.48" style="fill:#f5f5f5"></rect><rect x="261.32" y="286.89" width="36.27" height="12.48" style="fill:#f5f5f5"></rect><rect x="227.64" y="36.39" width="36.27" height="12.48" style="fill:#f5f5f5"></rect></g><g id="freepik--Floor--inject-172"><path d="M715.67,452.23c0,.14-154.77.26-345.65.26s-345.69-.12-345.69-.26S179.07,452,370,452,715.67,452.08,715.67,452.23Z" style="fill:#263238"></path></g><g id="freepik--speech-bubble-2--inject-172"><path d="M483,291.49h0a27.71,27.71,0,1,0-6.63,7.43l8.48,1.06Z" style="fill:#fff"></path><path d="M483,291.49s0,.17.13.53.22.92.38,1.61c.33,1.47.81,3.6,1.44,6.34l0,.15-.16,0-8.48-1,.11,0a27.75,27.75,0,0,1-12.88,5.59,40.79,40.79,0,0,1-4.08.34,30,30,0,0,1-4.28-.32,27.42,27.42,0,0,1-8.67-2.75,28,28,0,0,1-15.21-25.31,27.57,27.57,0,0,1,2.42-11,27.92,27.92,0,0,1,28.94-16.39,27.13,27.13,0,0,1,7.69,2.08,29.92,29.92,0,0,1,6.44,3.87A28.9,28.9,0,0,1,485,265.86a28.5,28.5,0,0,1,2.28,10.85A27.32,27.32,0,0,1,484,289.9c-.29.53-.53.93-.7,1.2a4.69,4.69,0,0,1-.27.4h0a4,4,0,0,1,.22-.43c.16-.27.38-.68.65-1.22a28.42,28.42,0,0,0,2-4.91,27.15,27.15,0,0,0,1.11-8.23,28.19,28.19,0,0,0-2.32-10.7,28.54,28.54,0,0,0-8.05-10.47,29.08,29.08,0,0,0-6.36-3.79,27.3,27.3,0,0,0-7.56-2,27.5,27.5,0,0,0-28.41,16.13,27.25,27.25,0,0,0-2.37,10.76,27.59,27.59,0,0,0,14.9,24.89,27,27,0,0,0,8.53,2.73,30.35,30.35,0,0,0,4.21.34c1.37-.1,2.73-.1,4-.32a27.56,27.56,0,0,0,12.76-5.44l.05,0h.06l8.47,1.1-.12.14-1.28-6.29c-.15-.71-.26-1.26-.34-1.66S483,291.49,483,291.49Z" style="fill:#263238"></path><path d="M470.61,274.34a7.16,7.16,0,0,0-1.81-3.88,6.81,6.81,0,0,0-3.56-2.22,5.6,5.6,0,0,0-4.32.83,5.49,5.49,0,0,0-1.78,2,5.52,5.52,0,0,0-1.64-1.79,5.59,5.59,0,0,0-4.31-.87,6.77,6.77,0,0,0-3.58,2.18,7,7,0,0,0-1.85,3.86,8.62,8.62,0,0,0,1.05,5.34,12.29,12.29,0,0,0,4.21,4c2.75,1.67,6.38,3.78,6.38,3.78s3.08-2.29,5.86-3.94a12.35,12.35,0,0,0,4.25-3.94A8.66,8.66,0,0,0,470.61,274.34Z" style="fill:#FF725E"></path></g><g id="freepik--speech-bubble-1--inject-172"><path d="M145,218.23l4.24-7.17a27,27,0,1,1,4.07,8.82h0Z" style="fill:#fff"></path><path d="M145,218.23l.56.1,1.61.29,6.17,1.16-.13.15h0l-.31-.8.5.69a27,27,0,0,0,10,8.55,26.46,26.46,0,0,0,8.22,2.52A26.71,26.71,0,0,0,191,226.09a27.18,27.18,0,0,0,7.71-8.58,26.86,26.86,0,0,0,1-24.33c-.24-.5-.46-1-.71-1.49l-.84-1.42-.42-.7-.48-.66-1-1.32A27.18,27.18,0,0,0,180.6,178a26.94,26.94,0,0,0-31.29,33v.05l0,0-3.19,5.27-.84,1.37c-.19.31-.3.47-.3.47s.07-.15.25-.45.44-.78.78-1.37l3.11-5.4v.08A26.89,26.89,0,0,1,149,197.8a27.21,27.21,0,0,1,43.1-15.1,27.69,27.69,0,0,1,4.68,4.57l1,1.34.49.67.42.72.86,1.44c.26.5.48,1,.72,1.52a26.63,26.63,0,0,1,2.44,12.82,27.06,27.06,0,0,1-3.49,12,27.37,27.37,0,0,1-7.87,8.72,27.12,27.12,0,0,1-38.12-6.53l.2-.1h0l.07.19-.19,0-6.22-1.31-1.57-.34C145.13,218.28,145,218.23,145,218.23Z" style="fill:#263238"></path><path d="M186.36,201.48a7,7,0,0,0-1.77-3.79,6.63,6.63,0,0,0-3.47-2.16,5.52,5.52,0,0,0-4.22.8,5.66,5.66,0,0,0-1.73,1.94,5.3,5.3,0,0,0-1.59-1.74,5.46,5.46,0,0,0-4.21-.85,6.68,6.68,0,0,0-3.49,2.12,7,7,0,0,0-1.81,3.77,8.42,8.42,0,0,0,1,5.21,11.82,11.82,0,0,0,4.1,3.88c2.69,1.64,6.22,3.69,6.22,3.69s3-2.23,5.72-3.83a12,12,0,0,0,4.14-3.85A8.45,8.45,0,0,0,186.36,201.48Z" style="fill:#FF725E"></path></g><g id="freepik--window-2--inject-172"><rect x="508.22" y="76.09" width="119.34" height="214.38" style="fill:#263238"></rect><rect x="512.99" y="82.31" width="108.57" height="201.78" style="fill:#fff"></rect><circle cx="598.88" cy="165.11" r="9.7" transform="translate(-17.41 243.27) rotate(-22.64)" style="fill:#FF725E"></circle><path d="M598.88,185.46a15.64,15.64,0,0,1-.26-4,15.75,15.75,0,0,1,.26-4,15.22,15.22,0,0,1,.26,4A15.11,15.11,0,0,1,598.88,185.46Z" style="fill:#FF725E"></path><path d="M590.09,175c.11.1-.53,1-1.44,2.1s-1.72,1.86-1.83,1.77a6.35,6.35,0,0,1,1.44-2.1C589.16,175.68,590,174.89,590.09,175Z" style="fill:#FF725E"></path><path d="M586.54,166.63a31.44,31.44,0,0,1-8.07,0,31.44,31.44,0,0,1,8.07,0Z" style="fill:#FF725E"></path><path d="M589.53,157.69c-.1.11-1-.63-2-1.63s-1.76-1.91-1.66-2,1,.63,2,1.64S589.63,157.59,589.53,157.69Z" style="fill:#FF725E"></path><path d="M598.45,143a23.06,23.06,0,0,1,.26,4.84,22.92,22.92,0,0,1-.26,4.83,22.15,22.15,0,0,1-.26-4.83A22.28,22.28,0,0,1,598.45,143Z" style="fill:#FF725E"></path><path d="M609.55,152.54c.11.09-.42.94-1.18,1.91s-1.48,1.68-1.59,1.59.42-.95,1.18-1.91S609.44,152.45,609.55,152.54Z" style="fill:#FF725E"></path><path d="M617.93,164.72a28.56,28.56,0,0,1-7.69,0,28.56,28.56,0,0,1,7.69,0Z" style="fill:#FF725E"></path><path d="M612.08,176.92c-.1.1-1-.63-2-1.63s-1.73-1.89-1.62-2,1,.63,2,1.63S612.18,176.82,612.08,176.92Z" style="fill:#FF725E"></path><path d="M512.51,222.31c5.85-4.37,14.74-1.7,19.53,3.81s6.53,13,8.11,20.09A16.22,16.22,0,0,1,559.69,268c10.89-3.19,23.67,2.65,28.38,13a18.09,18.09,0,0,1,19.7-21.24c-5.69-13.41.85-30.73,14-37v61.55H512.39Z" style="fill:#455a64"></path><polygon points="632.61 292.41 627.56 290.47 627.56 72.45 632.61 72.45 632.61 292.41" style="fill:#455a64"></polygon><rect x="512.99" y="140.35" width="110.93" height="2.15" style="fill:#263238"></rect><rect x="512.99" y="188.4" width="110.93" height="2.15" style="fill:#263238"></rect><rect x="512.99" y="236.46" width="110.93" height="2.15" style="fill:#263238"></rect><rect x="493.09" y="212.87" width="148.38" height="5.49" transform="translate(351.66 782.89) rotate(-90)" style="fill:#263238"></rect><rect x="533.9" y="82.31" width="2.48" height="59.12" style="fill:#263238"></rect><rect x="555.33" y="82.31" width="2.49" height="59.12" style="fill:#263238"></rect><rect x="576.76" y="82.31" width="2.49" height="59.12" style="fill:#263238"></rect><rect x="598.2" y="82.31" width="2.48" height="59.12" style="fill:#263238"></rect><polygon points="508.22 291.8 503.18 292.03 503.18 72.45 508.22 72.45 508.22 291.8" style="fill:#455a64"></polygon><rect x="503.18" y="70.24" width="129.43" height="5.85" style="fill:#455a64"></rect><rect x="499.59" y="293.13" width="136.43" height="5.45" style="fill:#455a64"></rect><polygon points="627.56 290.47 636.03 293.13 499.59 293.13 508.22 290.47 627.56 290.47" style="fill:#455a64"></polygon><path d="M635.93,293.13c0,.14-30.41.26-67.92.26s-67.93-.12-67.93-.26,30.41-.26,67.93-.26S635.93,293,635.93,293.13Z" style="fill:#263238"></path><path d="M509.05,76.76a11.75,11.75,0,0,1-3.23-2.93,11.78,11.78,0,0,1-2.38-3.66c.13-.08,1.23,1.52,2.78,3.32A40.71,40.71,0,0,1,509.05,76.76Z" style="fill:#263238"></path><path d="M632.61,70.24a19.42,19.42,0,0,1-2.75,3.45,18.57,18.57,0,0,1-3.14,3.1,18.73,18.73,0,0,1,2.75-3.45A19.06,19.06,0,0,1,632.61,70.24Z" style="fill:#263238"></path><path d="M508.09,290.22s-.12.17-.39.34h0a17.09,17.09,0,0,1-1.92.81,6.66,6.66,0,0,1-2.51.64,6.55,6.55,0,0,1,2.33-1.13,18.66,18.66,0,0,1,2-.61h0C507.88,290.19,508.07,290.17,508.09,290.22Z" style="fill:#263238"></path></g><g id="freepik--window-1--inject-172"><path d="M213,128.67c-.14,0-.26-13.32-.26-29.74s.12-29.75.26-29.75.26,13.32.26,29.75S213.16,128.67,213,128.67Z" style="fill:#263238"></path><path d="M210.86,128.67c-.15,0-.26-13.32-.26-29.74s.11-29.75.26-29.75.26,13.32.26,29.75S211,128.67,210.86,128.67Z" style="fill:#263238"></path><rect x="207.98" y="70.75" width="142.96" height="187.7" style="fill:#455a64"></rect><rect x="216.53" y="73.78" width="127.67" height="182.96" style="fill:#263238"></rect><rect x="229.61" y="134.09" width="50.74" height="122.5" style="fill:#455a64"></rect><rect x="237.77" y="149" width="8.01" height="8.01" style="fill:#fff"></rect><rect x="250.97" y="149" width="8.01" height="8.01" style="fill:#e0e0e0"></rect><rect x="264.18" y="149" width="8.01" height="8.01" style="fill:#e0e0e0"></rect><rect x="237.77" y="161.07" width="8.01" height="8.01" style="fill:#e0e0e0"></rect><rect x="250.97" y="161.07" width="8.01" height="8.01" style="fill:#fff"></rect><rect x="264.18" y="161.07" width="8.01" height="8.01" style="fill:#e0e0e0"></rect><rect x="237.77" y="173.14" width="8.01" height="8.01" style="fill:#e0e0e0"></rect><rect x="250.97" y="173.14" width="8.01" height="8.01" style="fill:#e0e0e0"></rect><rect x="264.18" y="173.14" width="8.01" height="8.01" style="fill:#e0e0e0"></rect><rect x="237.77" y="185.22" width="8.01" height="8.01" style="fill:#fff"></rect><rect x="250.97" y="185.22" width="8.01" height="8.01" style="fill:#e0e0e0"></rect><rect x="264.18" y="185.22" width="8.01" height="8.01" style="fill:#fff"></rect><rect x="237.77" y="197.29" width="8.01" height="8.01" style="fill:#e0e0e0"></rect><rect x="250.97" y="197.29" width="8.01" height="8.01" style="fill:#e0e0e0"></rect><rect x="264.18" y="197.29" width="8.01" height="8.01" style="fill:#e0e0e0"></rect><rect x="237.77" y="209.36" width="8.01" height="8.01" style="fill:#e0e0e0"></rect><rect x="250.97" y="209.36" width="8.01" height="8.01" style="fill:#fff"></rect><rect x="264.18" y="209.36" width="8.01" height="8.01" style="fill:#e0e0e0"></rect><rect x="237.77" y="221.43" width="8.01" height="8.01" style="fill:#e0e0e0"></rect><rect x="250.97" y="221.43" width="8.01" height="8.01" style="fill:#e0e0e0"></rect><rect x="264.18" y="221.43" width="8.01" height="8.01" style="fill:#fff"></rect><rect x="237.77" y="233.5" width="8.01" height="8.01" style="fill:#fff"></rect><rect x="250.97" y="233.5" width="8.01" height="8.01" style="fill:#e0e0e0"></rect><rect x="264.18" y="233.5" width="8.01" height="8.01" style="fill:#e0e0e0"></rect><rect x="237.77" y="245.57" width="8.01" height="8.01" style="fill:#e0e0e0"></rect><rect x="250.97" y="245.57" width="8.01" height="8.01" style="fill:#fff"></rect><rect x="264.18" y="245.57" width="8.01" height="8.01" style="fill:#e0e0e0"></rect><rect x="282.87" y="173.62" width="34.57" height="83.46" style="fill:#455a64"></rect><rect x="288.42" y="183.78" width="5.46" height="5.46" style="fill:#fafafa"></rect><rect x="297.42" y="183.78" width="5.46" height="5.46" style="fill:#e0e0e0"></rect><rect x="306.42" y="183.78" width="5.46" height="5.46" style="fill:#fafafa"></rect><rect x="288.42" y="192.01" width="5.46" height="5.46" style="fill:#e0e0e0"></rect><rect x="297.42" y="192.01" width="5.46" height="5.46" style="fill:#fafafa"></rect><rect x="306.42" y="192.01" width="5.46" height="5.46" style="fill:#fafafa"></rect><rect x="288.42" y="200.23" width="5.46" height="5.46" style="fill:#fafafa"></rect><rect x="297.42" y="200.23" width="5.46" height="5.46" style="fill:#e0e0e0"></rect><rect x="306.42" y="200.23" width="5.46" height="5.46" style="fill:#fafafa"></rect><rect x="288.42" y="208.45" width="5.46" height="5.46" style="fill:#fafafa"></rect><rect x="297.42" y="208.45" width="5.46" height="5.46" style="fill:#fafafa"></rect><rect x="306.42" y="208.45" width="5.46" height="5.46" style="fill:#e0e0e0"></rect><rect x="288.42" y="216.68" width="5.46" height="5.46" style="fill:#e0e0e0"></rect><rect x="297.42" y="216.68" width="5.46" height="5.46" style="fill:#fafafa"></rect><rect x="306.42" y="216.68" width="5.46" height="5.46" style="fill:#fafafa"></rect><rect x="288.42" y="224.9" width="5.46" height="5.46" style="fill:#fafafa"></rect><rect x="297.42" y="224.9" width="5.46" height="5.46" style="fill:#fafafa"></rect><rect x="306.42" y="224.9" width="5.46" height="5.46" style="fill:#e0e0e0"></rect><rect x="288.42" y="233.13" width="5.46" height="5.46" style="fill:#fafafa"></rect><rect x="297.42" y="233.13" width="5.46" height="5.46" style="fill:#e0e0e0"></rect><rect x="306.42" y="233.13" width="5.46" height="5.46" style="fill:#fafafa"></rect><rect x="288.42" y="241.35" width="5.46" height="5.46" style="fill:#e0e0e0"></rect><rect x="297.42" y="241.35" width="5.46" height="5.46" style="fill:#fafafa"></rect><rect x="306.42" y="241.35" width="5.46" height="5.46" style="fill:#fafafa"></rect><rect x="288.42" y="249.58" width="5.46" height="5.46" style="fill:#fafafa"></rect><rect x="297.42" y="249.58" width="5.46" height="5.46" style="fill:#fafafa"></rect><rect x="306.42" y="249.58" width="5.46" height="5.46" style="fill:#e0e0e0"></rect><rect x="320.43" y="207.89" width="20.01" height="48.32" style="fill:#455a64"></rect><rect x="323.64" y="213.77" width="3.16" height="3.16" style="fill:#fafafa"></rect><rect x="328.85" y="213.77" width="3.16" height="3.16" style="fill:#e0e0e0"></rect><rect x="334.06" y="213.77" width="3.16" height="3.16" style="fill:#fafafa"></rect><rect x="323.64" y="218.53" width="3.16" height="3.16" style="fill:#fafafa"></rect><rect x="328.85" y="218.53" width="3.16" height="3.16" style="fill:#e0e0e0"></rect><rect x="334.06" y="218.53" width="3.16" height="3.16" style="fill:#fafafa"></rect><rect x="323.64" y="223.29" width="3.16" height="3.16" style="fill:#e0e0e0"></rect><rect x="328.85" y="223.29" width="3.16" height="3.16" style="fill:#fafafa"></rect><rect x="334.06" y="223.29" width="3.16" height="3.16" style="fill:#e0e0e0"></rect><rect x="323.64" y="228.06" width="3.16" height="3.16" style="fill:#fafafa"></rect><rect x="328.85" y="228.06" width="3.16" height="3.16" style="fill:#e0e0e0"></rect><rect x="334.06" y="228.06" width="3.16" height="3.16" style="fill:#fafafa"></rect><rect x="323.64" y="232.82" width="3.16" height="3.16" style="fill:#fafafa"></rect><rect x="328.85" y="232.82" width="3.16" height="3.16" style="fill:#fafafa"></rect><rect x="334.06" y="232.82" width="3.16" height="3.16" style="fill:#e0e0e0"></rect><rect x="323.64" y="237.58" width="3.16" height="3.16" style="fill:#e0e0e0"></rect><rect x="328.85" y="237.58" width="3.16" height="3.16" style="fill:#fafafa"></rect><rect x="334.06" y="237.58" width="3.16" height="3.16" style="fill:#fafafa"></rect><rect x="323.64" y="242.34" width="3.16" height="3.16" style="fill:#fafafa"></rect><rect x="328.85" y="242.34" width="3.16" height="3.16" style="fill:#e0e0e0"></rect><rect x="334.06" y="242.34" width="3.16" height="3.16" style="fill:#fafafa"></rect><rect x="323.64" y="247.1" width="3.16" height="3.16" style="fill:#fafafa"></rect><rect x="328.85" y="247.1" width="3.16" height="3.16" style="fill:#e0e0e0"></rect><rect x="334.06" y="247.1" width="3.16" height="3.16" style="fill:#fafafa"></rect><rect x="323.64" y="251.86" width="3.16" height="3.16" style="fill:#e0e0e0"></rect><rect x="328.85" y="251.86" width="3.16" height="3.16" style="fill:#fafafa"></rect><rect x="334.06" y="251.86" width="3.16" height="3.16" style="fill:#e0e0e0"></rect><path d="M324.73,144.66a22.3,22.3,0,0,1-18.16-35.24,22.29,22.29,0,1,0,31.09,31.09A22.15,22.15,0,0,1,324.73,144.66Z" style="fill:#fff"></path><path d="M348.29,128.67c-.14,0-.26-13.32-.26-29.74s.12-29.75.26-29.75.26,13.32.26,29.75S348.43,128.67,348.29,128.67Z" style="fill:#263238"></path><path d="M346.13,128.67c-.14,0-.26-13.32-.26-29.74s.12-29.75.26-29.75.26,13.32.26,29.75S346.28,128.67,346.13,128.67Z" style="fill:#263238"></path><polygon points="359.15 70.75 201.59 70.75 203.98 67.14 355.73 67.14 359.15 70.75" style="fill:#e0e0e0"></polygon><path d="M359.15,70.75l-3.47-3.57.05,0c-16.34.11-77.93.2-151.75.2l.21-.12-1.41,2.15-1,1.47-.22-.41,157.56.26L201.59,71h-.48l.27-.41c.3-.46.63-1,1-1.47L203.76,67l.08-.11H204c73.82,0,135.41.08,151.75.2h0v0C358,69.5,358.87,70.46,359.15,70.75Z" style="fill:#263238"></path><polygon points="359.15 78.2 201.59 78.2 203.98 74.58 355.73 74.58 359.15 78.2" style="fill:#e0e0e0"></polygon><path d="M359.15,78.2l-3.47-3.58.05,0c-16.34.12-77.93.2-151.75.2l.21-.12-1.41,2.15-1,1.47-.22-.4,157.56.26-157.56.26h-.48l.27-.41,1-1.47c.48-.73,1-1.47,1.41-2.14l.08-.12H204c73.82,0,135.41.09,151.75.2h0v0Z" style="fill:#263238"></path><polygon points="359.15 85.64 201.59 85.64 203.98 82.02 355.73 82.02 359.15 85.64" style="fill:#e0e0e0"></polygon><path d="M359.15,85.64l-3.47-3.57.05,0c-16.34.11-77.93.19-151.75.19l.21-.11-1.41,2.14-1,1.47-.22-.4,157.56.26-157.56.26h-.48l.27-.4c.3-.47.63-1,1-1.47l1.41-2.15.08-.12H204c73.82,0,135.41.09,151.75.2h0v0Z" style="fill:#263238"></path><polygon points="359.15 93.08 201.59 93.08 203.98 89.47 355.73 89.47 359.15 93.08" style="fill:#e0e0e0"></polygon><path d="M359.15,93.08l-3.47-3.57.05,0c-16.34.11-77.93.2-151.75.2l.21-.12-1.41,2.15-1,1.47-.22-.41,157.56.26-157.56.26h-.48l.27-.4c.3-.46.63-1,1-1.47l1.41-2.15.08-.11H204c73.82,0,135.41.08,151.75.19h0C358,91.82,358.87,92.79,359.15,93.08Z" style="fill:#263238"></path><polygon points="359.15 100.53 201.59 100.53 203.98 96.91 355.73 96.91 359.15 100.53" style="fill:#e0e0e0"></polygon><path d="M359.15,100.53,355.68,97l.05,0c-16.34.11-77.93.2-151.75.2l.21-.12-1.41,2.15-1,1.47-.22-.4,157.56.26-157.56.26h-.48l.27-.41,1-1.47c.48-.73,1-1.47,1.41-2.14l.08-.12H204c73.82,0,135.41.09,151.75.2h0v0Z" style="fill:#263238"></path><polygon points="359.15 107.97 201.59 107.97 203.98 104.35 355.73 104.35 359.15 107.97" style="fill:#e0e0e0"></polygon><path d="M359.15,108l-3.47-3.57h.05c-16.34.12-77.93.2-151.75.2l.21-.11-1.41,2.14-1,1.47-.22-.4,157.56.26-157.56.26h-.48l.27-.4c.3-.47.63-1,1-1.47l1.41-2.15.08-.12H204c73.82,0,135.41.09,151.75.2h0v0Z" style="fill:#263238"></path><polygon points="359.15 115.41 201.59 115.41 203.98 111.8 355.73 111.8 359.15 115.41" style="fill:#e0e0e0"></polygon><path d="M359.15,115.41l-3.47-3.57.05,0c-16.34.11-77.93.19-151.75.2l.21-.12c-.44.68-.93,1.41-1.41,2.14l-1,1.48-.22-.41,157.56.26-157.56.26h-.48l.27-.4c.3-.47.63-1,1-1.47l1.41-2.15.08-.11H204c73.82,0,135.41.08,151.75.19h0v0Z" style="fill:#263238"></path><polygon points="359.15 122.86 201.59 122.86 203.98 119.24 355.73 119.24 359.15 122.86" style="fill:#e0e0e0"></polygon><path d="M359.15,122.85l-3.47-3.57.05,0c-16.34.11-77.93.2-151.75.2l.21-.12-1.41,2.15-1,1.47-.22-.41,157.56.26-157.56.27h-.48l.27-.41c.3-.46.63-1,1-1.47.48-.73,1-1.47,1.41-2.14l.08-.12H204c73.82,0,135.41.08,151.75.2h0v0C358,121.6,358.87,122.56,359.15,122.85Z" style="fill:#263238"></path><polygon points="359.15 130.3 201.59 130.3 203.98 126.68 355.73 126.68 359.15 130.3" style="fill:#e0e0e0"></polygon><path d="M359.15,130.3l-3.47-3.58.05,0c-16.34.12-77.93.2-151.75.2l.21-.12L202.78,129l-1,1.47-.22-.4,157.56.26-157.56.26h-.48l.27-.41,1-1.47,1.41-2.14.08-.12H204c73.82,0,135.41.09,151.75.2h0v0Z" style="fill:#263238"></path><rect x="215.19" y="256.21" width="145.12" height="8.44" style="fill:#263238"></rect><rect x="197.87" y="256.21" width="145.12" height="8.44" style="fill:#455a64"></rect><rect x="200.96" y="60.17" width="157.93" height="6.97" style="fill:#455a64"></rect><path d="M354,190.05c-.15,0-.26-27.9-.26-62.31s.11-62.32.26-62.32.26,27.9.26,62.32S354.13,190.05,354,190.05Z" style="fill:#263238"></path><path d="M360.31,256.24c0,.14-36.36.26-81.19.26s-81.2-.12-81.2-.26,36.35-.26,81.2-.26S360.31,256.1,360.31,256.24Z" style="fill:#263238"></path><path d="M302.78,159.71l.34.56a3.85,3.85,0,0,0,1.6,1.47l.58.29-.56.34a3.91,3.91,0,0,0-1.47,1.6l-.29.59-.34-.57a3.89,3.89,0,0,0-1.59-1.47l-.59-.29.56-.34a3.89,3.89,0,0,0,1.47-1.59Z" style="fill:#fff"></path><path d="M294.81,151.45l.18.28a1.83,1.83,0,0,0,.81.75l.29.15-.28.17a2,2,0,0,0-.75.81l-.15.3-.17-.29a1.87,1.87,0,0,0-.81-.74l-.3-.15.29-.17a1.93,1.93,0,0,0,.74-.81Z" style="fill:#fff"></path><path d="M321.81,135.08l.18.29a2,2,0,0,0,.81.75l.3.14-.29.18a2,2,0,0,0-.75.81l-.14.3-.18-.29a2,2,0,0,0-.81-.75l-.3-.14.29-.18a2,2,0,0,0,.75-.81Z" style="fill:#fff"></path><path d="M330.33,178.69l.17.29a2,2,0,0,0,.82.75l.29.14-.28.18a2,2,0,0,0-.75.81l-.15.3-.17-.29a2,2,0,0,0-.81-.75l-.3-.14.29-.18a1.87,1.87,0,0,0,.74-.81Z" style="fill:#fff"></path></g><g id="freepik--character-2--inject-172"><path d="M584,359.43c-9.3,10.84-10.29,22.56-14,33.52-6.06,17.92-9.34,36.17-5.93,54.77,4.81,5.11,14.8,4.8,23.24,3.8,15-1.78,32.26,1.36,47.32.59a12.43,12.43,0,0,0,8-3.54c3.68-3.34,3.52-9,3.75-14,1.07-22.86,15.95-42.6,22-64.67.35-1.27.64-2.72-.09-3.82a4.63,4.63,0,0,0-3.17-1.6c-12.61-2.51-25.61-1.35-38.46-.9-12.2.42-24.81.09-36.09-4.47a8.15,8.15,0,0,0-4.85-.46A3.21,3.21,0,0,0,584,359.43Z" style="fill:#455a64"></path><path d="M597.89,391.67a2.05,2.05,0,0,1,.27-.39l.83-1.06c.36-.47.81-1,1.38-1.63s1.18-1.34,2-2.06l1.18-1.16c.41-.4.87-.78,1.33-1.19.91-.83,2-1.63,3.06-2.49a58.47,58.47,0,0,1,7.65-4.8,60.2,60.2,0,0,1,8.35-3.45c1.33-.39,2.59-.79,3.8-1,.6-.14,1.18-.3,1.74-.4l1.63-.29c1-.21,2-.28,2.8-.39s1.54-.16,2.13-.18l1.35-.06h.47a1.8,1.8,0,0,1-.47.08l-1.34.13c-.58,0-1.29.11-2.11.24s-1.77.23-2.79.45l-1.61.31c-.56.11-1.13.27-1.72.42-1.2.26-2.45.67-3.77,1.07a61.49,61.49,0,0,0-8.29,3.46A59.85,59.85,0,0,0,608.1,382c-1.09.84-2.15,1.62-3.06,2.44-.46.41-.93.78-1.34,1.17l-1.19,1.13c-.77.7-1.4,1.42-2,2s-1,1.14-1.42,1.58l-.89,1A2.4,2.4,0,0,1,597.89,391.67Z" style="fill:#263238"></path><g style="opacity:0.2"><path d="M573.22,451c7.15-1.9,8.83-9.93,9.35-14.78s-.35-9.74-.27-14.62a38,38,0,0,1,15.1-29.4c-3.08-2.87-4.14-7.33-4.3-11.54s.41-8.44-.1-12.62-2.4-8.51-6.1-10.51l-15.4,52,4.37,23.83-5.69,17.35Z"></path></g><path d="M586.91,335.48l19.52,20.92c3.22,3.45,5.55,6.6,10.12,7.81,3.2.84,8.22.4,9.87-1.72,2.27-2.91,3.36-8.87.87-12.72s-20-20.94-20-20.94l-20.42,6.65" style="fill:#ffbe9d"></path><path d="M580.08,300.85c-.26-7.38-.53-14.79-1.94-22s-3.18-14.3-7.72-20.13L528,261c-1.63,6.54-3.29,13.24-2.6,19.95.66,6.51,3.5,12.8,3,19.33-.33,4.61-2.27,8.92-3.71,13.32s-2.36,9.27-.66,13.56a5.83,5.83,0,0,0,2,2.78,7.46,7.46,0,0,0,4.14.81q25.46,0,50.88-1.17Q580.6,315.19,580.08,300.85Z" style="fill:#263238"></path><path d="M613.94,333.66s-20.28-24.2-28-24.2c0,0-4.87,8.58-5,13.26s15.61,26.59,15.61,26.59Z" style="fill:#FF725E"></path><path d="M565,309.19l20.86.22,6.44,32.13s-3.46,33.49-6,42-9.22,24.65-9.22,24.65l-50.64-13.47-1.54-37.1-6.29-34.84,22-8.68Z" style="fill:#FF725E"></path><path d="M504,353.62c0-1.29,7.17-27.73,14.6-30.8l5.73,8.85L527,355.74Z" style="fill:#FF725E"></path><path d="M592.15,325.08a5.11,5.11,0,0,1,0,.84c0,.62,0,1.38-.09,2.28-.07,1.92-.13,4.57-.1,7.5s.17,5.58.29,7.5c.06.89.1,1.65.14,2.27a3.41,3.41,0,0,1,0,.84,3.47,3.47,0,0,1-.16-.83c-.08-.53-.17-1.3-.26-2.26-.19-1.92-.36-4.58-.4-7.52s.07-5.6.21-7.52c.07-1,.14-1.73.21-2.27A3.16,3.16,0,0,1,592.15,325.08Z" style="fill:#263238"></path><path d="M524.71,332.75a3.74,3.74,0,0,1-.08.92c-.08.59-.18,1.44-.29,2.5a65.72,65.72,0,0,0,.36,16.5c.16,1.05.3,1.89.4,2.48a4.06,4.06,0,0,1,.12.92,3.91,3.91,0,0,1-.26-.89c-.15-.58-.33-1.42-.53-2.47a54,54,0,0,1-.36-16.58c.15-1.05.29-1.9.41-2.48A3.78,3.78,0,0,1,524.71,332.75Z" style="fill:#263238"></path><path d="M569.26,392.67a5.67,5.67,0,0,1-.73-.8c-.5-.59-1.13-1.35-1.9-2.25-1.59-1.91-3.8-4.53-6.29-7.38s-4.8-5.39-6.48-7.22l-2-2.18a6,6,0,0,1-.7-.83,7.25,7.25,0,0,1,.81.73c.5.48,1.2,1.2,2.07,2.09,1.73,1.79,4.07,4.3,6.57,7.15s4.68,5.51,6.22,7.46c.77,1,1.38,1.78,1.79,2.34A5.25,5.25,0,0,1,569.26,392.67Z" style="fill:#263238"></path><path d="M573.61,277a32.2,32.2,0,0,1-10.29,24.35q-2.3-6.66-4.6-13.33" style="fill:#263238"></path><path d="M538.93,250.5a19.51,19.51,0,0,1,13.14-1.58,41.47,41.47,0,0,1,12.42,5.13,20.52,20.52,0,0,1,5.93,4.63c2.87,3.61,5.7,9.54,6,14.14.22,3.72-1.2,13-2.77,16.41-1.45,3.1-8.2,5.46-11.53,6.22l-30.58-35.56A15.52,15.52,0,0,1,538.93,250.5Z" style="fill:#263238"></path><path d="M533.66,255.3,541,254c-4,9.54-5.09,31.37-7.38,41.46-2.71-3.92-9-15.86-8.65-20.61S525,254.49,533.66,255.3Z" style="fill:#263238"></path><path d="M529.47,270.86c.48-7.32,5.35-16.3,12.65-15.51L559,259.66a12.52,12.52,0,0,1,9.42,11.53c0,.27.05-.06,0,.14l-3.77,43.72L552,340.2h0l-11.18-26.37c0-3.57,0-6.41,0-6.39s-9.36-1.57-11.27-13.79C528.61,287.58,528.94,279,529.47,270.86Z" style="fill:#ffbe9d"></path><path d="M534,280.79a1.57,1.57,0,0,0,1.51,1.58A1.49,1.49,0,0,0,537.1,281a1.55,1.55,0,0,0-1.5-1.58A1.5,1.5,0,0,0,534,280.79Z" style="fill:#263238"></path><path d="M531.3,275.64c.2.21,1.39-.67,3.07-.66s2.92.85,3.1.65-.11-.46-.64-.86a4.35,4.35,0,0,0-2.49-.77,4.13,4.13,0,0,0-2.44.79C531.38,275.18,531.21,275.55,531.3,275.64Z" style="fill:#263238"></path><path d="M548.6,280.79a1.57,1.57,0,0,0,1.51,1.58,1.49,1.49,0,0,0,1.61-1.41,1.56,1.56,0,0,0-1.5-1.58A1.5,1.5,0,0,0,548.6,280.79Z" style="fill:#263238"></path><path d="M547.3,275.64c.2.21,1.39-.67,3.07-.66s2.92.85,3.1.65-.1-.46-.64-.86a4.34,4.34,0,0,0-2.48-.77,4.23,4.23,0,0,0-2.45.78C547.39,275.18,547.21,275.55,547.3,275.64Z" style="fill:#263238"></path><path d="M542,288.87a12.26,12.26,0,0,0-2.74-.5c-.43,0-.84-.13-.91-.42a2.21,2.21,0,0,1,.29-1.28L540,283.4c1.78-4.66,3.07-8.49,2.88-8.56s-1.78,3.65-3.56,8.31l-1.23,3.29a2.51,2.51,0,0,0-.22,1.69,1.06,1.06,0,0,0,.7.63,2.59,2.59,0,0,0,.73.1A10.55,10.55,0,0,0,542,288.87Z" style="fill:#263238"></path><path d="M557,303.1s-4,8.38-16.19,7.21v-2.87A30.75,30.75,0,0,0,557,303.1Z" style="fill:#eb996e"></path><path d="M547.83,269.55c.17.46,1.85.25,3.83.49s3.57.79,3.83.38c.12-.2-.16-.63-.8-1.08a6.56,6.56,0,0,0-2.84-1,6.47,6.47,0,0,0-3,.35C548.13,269,547.76,269.34,547.83,269.55Z" style="fill:#263238"></path><path d="M531.85,270.49c.3.38,1.46,0,2.86,0s2.57.26,2.85-.14c.12-.19-.07-.57-.59-.94a4.11,4.11,0,0,0-4.59.14C531.89,269.91,531.72,270.3,531.85,270.49Z" style="fill:#263238"></path><path d="M532.79,259.71a5.35,5.35,0,0,1,4.74-3,10.45,10.45,0,0,1,5.63,1.64c7.27,4.2,11,14.35,18.19,18.7,1.77,1.07,4.07.09,5.57,1.51s2.48,3.68,1.65,5.57a17.12,17.12,0,0,0,2.49-4.22,5.76,5.76,0,0,0-.2-4.76c-.62-1.07-1.72-1.89-2-3.1-.27-1.06.15-2.17.11-3.27a7.13,7.13,0,0,0-1.12-3.11,31.76,31.76,0,0,0-11.67-12.28,20.63,20.63,0,0,0-10.72-2.77,15.8,15.8,0,0,0-10.19,4c-1.61,1.5-3.3,3.05-2.46,5.08" style="fill:#263238"></path><path d="M566.75,280c.13-.35,6.49-2.65,6.58,4.12.08,6.58-6.55,5.28-6.57,5.09S566.75,280,566.75,280Z" style="fill:#ffbe9d"></path><path d="M568.77,286.73s.11.08.31.17a1.11,1.11,0,0,0,.85,0,2.82,2.82,0,0,0,1.29-2.56,3.89,3.89,0,0,0-.33-1.63,1.33,1.33,0,0,0-.87-.87.58.58,0,0,0-.68.32c-.08.18,0,.31-.08.32s-.14-.11-.09-.38a.73.73,0,0,1,.26-.41.83.83,0,0,1,.63-.17,1.61,1.61,0,0,1,1.21,1,4,4,0,0,1,.41,1.83,3,3,0,0,1-1.64,2.86,1.21,1.21,0,0,1-1-.17C568.78,286.89,568.74,286.75,568.77,286.73Z" style="fill:#eb996e"></path><path d="M569.36,276.65a3.05,3.05,0,0,1-.39-.22c-.26-.16-.64-.37-1.11-.7a22.7,22.7,0,0,1-3.55-3.23,65.17,65.17,0,0,1-4.34-5.64,51.06,51.06,0,0,0-5.43-6.76,20.18,20.18,0,0,0-3.5-2.77,17.38,17.38,0,0,0-3.78-1.71,18.57,18.57,0,0,0-7-.86,17.66,17.66,0,0,0-4.66.92,12.8,12.8,0,0,0-1.22.45,2.46,2.46,0,0,1-.43.15l.41-.21a11.35,11.35,0,0,1,1.2-.5,16.8,16.8,0,0,1,4.69-1,18.54,18.54,0,0,1,7.06.8,17.56,17.56,0,0,1,3.86,1.73,20.73,20.73,0,0,1,3.56,2.81,50.51,50.51,0,0,1,5.44,6.81,68.43,68.43,0,0,0,4.27,5.66,24.85,24.85,0,0,0,3.46,3.28c.45.34.83.56,1.07.74A2.33,2.33,0,0,1,569.36,276.65Z" style="fill:#455a64"></path><path d="M567.71,278.51a10.15,10.15,0,0,1-.64,5.29c-.83,1.6-2.93,2.68-4.49,1.79-1.27-.73-1.65-2.36-1.87-3.81-.62-4.19-.91-8.42-1.57-12.61Z" style="fill:#263238"></path><path d="M546.18,292.07a3.26,3.26,0,0,1-1.63,5.09,1.86,1.86,0,0,1-1.23,0,2.71,2.71,0,0,1-1.3-1.69l-.68-1.71a.73.73,0,0,1-.06-.59c.09-.2.33-.27.55-.33l4.22-1" style="fill:#eb996e"></path><path d="M543.42,297a3.9,3.9,0,0,0,1.91-.24,3.06,3.06,0,0,0,1.69-1.37,2.24,2.24,0,0,0,.25-1.31,3.93,3.93,0,0,0-.33-1.35,3.5,3.5,0,0,0-.8-1.09l-.11-.11-.14.05c-2.79,1-5,1.49-5,1.61a17.2,17.2,0,0,0,5.13-1.14l-.26,0a3,3,0,0,1,.68.95,2.68,2.68,0,0,1,.12,2.22,2.74,2.74,0,0,1-1.4,1.25C544.15,296.83,543.4,296.88,543.42,297Z" style="fill:#263238"></path><path d="M534.41,256.58s.58-.11,1.63-.14a11.26,11.26,0,0,1,4.35.79,14.23,14.23,0,0,1,2.73,1.41,31.27,31.27,0,0,1,2.81,2.14,33.7,33.7,0,0,1,5.51,5.94c.83,1.17,1.57,2.38,2.37,3.5a16.83,16.83,0,0,0,2.64,3A29.09,29.09,0,0,0,562,276.9c1.68.89,3.09,1.51,4.06,1.94l1.12.48c.26.11.4.16.41.14l-.38-.21-1.09-.54c-1-.47-2.34-1.13-4-2a30.55,30.55,0,0,1-5.45-3.75,16.92,16.92,0,0,1-2.57-2.91c-.79-1.11-1.53-2.32-2.37-3.5a33.33,33.33,0,0,0-5.59-6,30.35,30.35,0,0,0-2.86-2.14,14.34,14.34,0,0,0-2.81-1.39,10.86,10.86,0,0,0-4.45-.7,8.68,8.68,0,0,0-1.21.17A1.87,1.87,0,0,0,534.41,256.58Z" style="fill:#455a64"></path><path d="M562.62,326.22l2.17,26.54a1.66,1.66,0,0,1-1.48,1.79l-16.37,1.74a1.66,1.66,0,0,1-1.82-1.46l-3.21-27.72a1.67,1.67,0,0,1,1.6-1.86l17.4-.55A1.65,1.65,0,0,1,562.62,326.22Z" style="fill:#263238"></path><path d="M550.63,337.45s-9.43,1.53-10,2.13-12.48,15.15-12.48,15.15l6.06,11.92,10.63-5.76a16.64,16.64,0,0,1,3.38-1.09s10.72-1.69,11.42-3,.3-1.59-.5-1.79-7.21.53-8.64.8a22,22,0,0,1-4.27,0s4.46-1,5.46-1.4,11-2.58,10.83-4.37-1.4-2.44-7.65-.75a45,45,0,0,1-10.53,1.7l13.81-4.82s5.56-1.79,3.77-3.38-13.7,1.69-13.7,1.69l-5.27,2,1.49-3.18s7.49-2.22,8.45-3c1.19-.93,1.35-1.79.46-2.55S550.63,337.45,550.63,337.45Z" style="fill:#ffbe9d"></path><path d="M507.22,354.06l17.34,1.51-.17,4.75,3.73-5.59,6.06,11.92s-2.2,7.08-3.38,11c-3.16,10.47-8.31,22.2-14.64,21.61-7.59-.7-13.14-9.71-13-15.53C503.26,378.43,507.22,354.06,507.22,354.06Z" style="fill:#ffbe9d"></path><path d="M528.12,354.73l.32-.42,1-1.22,3.75-4.65,6-7.29.89-1.08.47-.55a2,2,0,0,1,.71-.33c.95-.29,1.94-.49,2.95-.71q3.06-.62,6.47-1.18h0a4.88,4.88,0,0,1,1.75-.08,2.15,2.15,0,0,1,.87.3,2,2,0,0,1,.66.69,1.2,1.2,0,0,1,.1,1,2.35,2.35,0,0,1-.52.81,3.45,3.45,0,0,1-.75.61c-.28.15-.57.27-.86.39-2.33.91-4.82,1.68-7.39,2.46l.11-.09-1.49,3.18-.22-.24,5.26-2h0c2.26-.61,4.58-1.16,7-1.6a37,37,0,0,1,3.68-.5,12.05,12.05,0,0,1,1.9,0,3.42,3.42,0,0,1,1,.23,1.25,1.25,0,0,1,.73.79,1.13,1.13,0,0,1-.32,1,3.59,3.59,0,0,1-.77.64,10.58,10.58,0,0,1-1.73.91c-1.2.5-2.44.87-3.66,1.32l-7.48,2.61-4.06,1.42-.07-.37a47.06,47.06,0,0,0,9.76-1.5,40.67,40.67,0,0,1,4.72-1.06,7,7,0,0,1,2.42,0,1.81,1.81,0,0,1,1.09.66,2.24,2.24,0,0,1,.37,1.22,1,1,0,0,1-.3.62,2.55,2.55,0,0,1-.48.4,6.53,6.53,0,0,1-1,.57,20.1,20.1,0,0,1-2.13.85c-1.43.5-2.87.91-4.28,1.29l-2.1.56c-.69.18-1.37.42-2.06.58-1.37.36-2.73.68-4,1l0-.33a18,18,0,0,0,4.65-.06c1.53-.23,3-.39,4.48-.53.73-.07,1.45-.14,2.17-.18.36,0,.71,0,1.07,0a2.74,2.74,0,0,1,.56,0,2.14,2.14,0,0,1,.52.18.8.8,0,0,1,.41.47,1.13,1.13,0,0,1,0,.58,3.7,3.7,0,0,1-.19.5l-.12.23a.92.92,0,0,1-.19.24,6.52,6.52,0,0,1-1.86.83,67,67,0,0,1-7.15,1.59l-1.64.28a12.5,12.5,0,0,0-1.55.32,11.59,11.59,0,0,0-2.75,1l-7.69,4.11-2,1.08-.53.27-.18.08.17-.11.51-.29,2-1.12,7.64-4.19a19.27,19.27,0,0,1,6-1.66,67.84,67.84,0,0,0,7.12-1.62,6.31,6.31,0,0,0,1.75-.78.51.51,0,0,0,.13-.16l.11-.22a2.75,2.75,0,0,0,.17-.45c.09-.32,0-.59-.24-.72a2.27,2.27,0,0,0-.46-.16c-.15,0-.32,0-.49,0l-1.05.05-2.16.18c-1.45.15-2.94.32-4.46.54a17.86,17.86,0,0,1-4.74.08.16.16,0,0,1-.15-.18.17.17,0,0,1,.13-.15h0c1.33-.31,2.67-.64,4-1,.69-.16,1.35-.4,2-.59l2.11-.56c1.4-.38,2.83-.79,4.25-1.29a20.72,20.72,0,0,0,2.09-.84,7.69,7.69,0,0,0,1-.54c.29-.2.62-.48.62-.73a1.83,1.83,0,0,0-.3-1,1.43,1.43,0,0,0-.87-.51,6.53,6.53,0,0,0-2.29,0,42.46,42.46,0,0,0-4.68,1.06,46.11,46.11,0,0,1-9.85,1.51.19.19,0,0,1-.19-.19.17.17,0,0,1,.12-.18h0l4.06-1.42,7.48-2.61c1.23-.45,2.48-.82,3.64-1.31a10.56,10.56,0,0,0,1.67-.87,3.27,3.27,0,0,0,.69-.58.8.8,0,0,0,.25-.69c-.16-.5-.78-.7-1.38-.74a11.18,11.18,0,0,0-1.83,0,31.23,31.23,0,0,0-3.64.49c-2.39.43-4.71,1-7,1.57h0l-5.27,2a.17.17,0,0,1-.22-.1.22.22,0,0,1,0-.14l1.5-3.17a.15.15,0,0,1,.1-.09c2.57-.78,5.06-1.54,7.37-2.43.28-.12.57-.24.83-.38a2.84,2.84,0,0,0,.67-.54,1.19,1.19,0,0,0,.38-1.44,1.73,1.73,0,0,0-1.31-.84,4.69,4.69,0,0,0-1.63.07h0c-2.27.37-4.43.75-6.46,1.15-1,.21-2,.41-2.94.69a2.21,2.21,0,0,0-.6.26l-.46.54-.9,1.07-6,7.25-3.8,4.59-1,1.19C528.25,354.6,528.12,354.73,528.12,354.73Z" style="fill:#eb996e"></path><polygon points="497.99 433.36 468.23 445.75 479.92 459.31 505.36 454.34 497.99 433.36" style="fill:#ffbe9d"></polygon><path d="M577.51,407.34S579,441.55,576,447.57s-33.34,6.89-33.34,6.89l-47.81,3.43-6.06-22.27s34.48-16.89,37.74-18.83,11-5.36,11-5.36l11.39-15.31Z" style="fill:#263238"></path><path d="M522.05,455.28a2,2,0,0,1,.38-.14l1.09-.35c1-.29,2.38-.71,4.07-1.21l13.69-3.94h.05a20.56,20.56,0,0,0,2.3-.19,22.54,22.54,0,0,0,2.23-.43c.71-.22,1.42-.4,2.09-.68a20.48,20.48,0,0,0,3.72-1.85,21,21,0,0,0,7.82-8.66c.25-.51.4-.92.53-1.19a2.2,2.2,0,0,1,.2-.41,2.25,2.25,0,0,1-.13.44c-.11.27-.23.7-.46,1.22a20.54,20.54,0,0,1-2.48,4.12,21.55,21.55,0,0,1-5.29,4.78,20.24,20.24,0,0,1-3.78,1.9,22.14,22.14,0,0,1-2.13.7,21,21,0,0,1-2.26.44,21.68,21.68,0,0,1-2.36.2h0l-13.72,3.82-4.1,1.1-1.11.28C522.19,455.27,522.06,455.3,522.05,455.28Z" style="fill:#455a64"></path><path d="M525.5,417.8l-3.45-48.21s2.23-35.82-18-33.9-18.82,33.55-18.82,33.55,1.23,43.34,2.45,49.63,1.72,13.26,5.75,15.89l18.36-2.26Z" style="fill:#263238"></path><path d="M515.28,345.13l4.45,11.92-4.45,44.87s-26,1.4-25.76.7-3.93-22.54-3.93-22.54-.7-28.84,7.17-34.08S515.28,345.13,515.28,345.13Z" style="fill:#263238"></path><path d="M514.26,402s-1,21.46-1,21.46l-18.8,9.38-3.61-30Z" style="fill:#ffbe9d"></path><polygon points="548.89 396.12 527.2 388.95 516.16 399.26 523.18 420.29 540.42 413.44 548.89 396.12" style="fill:#263238"></polygon><path d="M488.79,435.62l.24-.14.72-.38,2.77-1.42,10.22-5.17,15.18-7.62,9-4.49,4.75-2.37,2.43-1.21,1.23-.61a8,8,0,0,1,1.26-.57,18.4,18.4,0,0,1,5.37-1.21,22,22,0,0,1,5.33.22,27,27,0,0,1,9.42,3.49,29.87,29.87,0,0,1,7,5.81,41.87,41.87,0,0,1,4.64,6.42,59.06,59.06,0,0,1,4.76,10.43c.45,1.27.77,2.27,1,2.95.1.33.17.59.23.78a1,1,0,0,1,.06.27,2.22,2.22,0,0,1-.1-.26c-.06-.19-.15-.44-.26-.76-.23-.68-.57-1.67-1-2.93a62.1,62.1,0,0,0-4.85-10.34,41.69,41.69,0,0,0-4.65-6.34,29.67,29.67,0,0,0-6.93-5.73,26.63,26.63,0,0,0-9.3-3.41,21.28,21.28,0,0,0-5.24-.22,18.1,18.1,0,0,0-5.25,1.19,7.35,7.35,0,0,0-1.25.56l-1.23.61-2.43,1.21-4.75,2.36-9,4.47-15.21,7.55-10.28,5.06-2.8,1.35-.73.35A1.16,1.16,0,0,1,488.79,435.62Z" style="fill:#455a64"></path><path d="M530.85,412.53a19.64,19.64,0,0,0-.29-3.25,25,25,0,0,0-3-7.26A44.89,44.89,0,0,1,524,394.9a15.1,15.1,0,0,1-.62-2.34,3.48,3.48,0,0,1-.08-.89,32.69,32.69,0,0,0,1,3.13,53.24,53.24,0,0,0,3.63,7,23.33,23.33,0,0,1,2.92,7.4,10.57,10.57,0,0,1,.15,2.42A2.8,2.8,0,0,1,530.85,412.53Z" style="fill:#455a64"></path><path d="M485.59,380.08l.06.23c0,.18.09.4.15.69.13.64.32,1.54.55,2.68.46,2.33,1.12,5.7,1.89,9.87.38,2.09.8,4.38,1.2,6.84.09.62.19,1.25.25,1.9a1.3,1.3,0,0,1,0,.28v.09s0,0,0-.08,0,0,0-.05h0c.14,0,.31,0,.46.06.32,0,.65,0,1,0,1.33,0,2.69,0,4.09,0,5.61-.15,11.77-.44,18.23-.77l1.82-.09-.19.17c1.27-12.47,2.4-23.67,3.22-31.79.43-4,.77-7.28,1-9.56.13-1.11.23-2,.3-2.6,0-.28.06-.5.08-.67a2.32,2.32,0,0,1,0-.23.73.73,0,0,1,0,.24c0,.17,0,.39-.05.67,0,.62-.13,1.49-.22,2.6-.21,2.28-.52,5.55-.89,9.58-.79,8.12-1.89,19.32-3.1,31.8l0,.16h-.16l-1.82.09c-6.46.33-12.63.61-18.24.74-1.4,0-2.77.06-4.1,0-.34,0-.67,0-1,0a3.12,3.12,0,0,1-.51-.07.33.33,0,0,1-.18-.08s0,0-.07-.09a.34.34,0,0,1,0-.1s.11,0,0,0v0a1.32,1.32,0,0,0,0-.2c-.05-.63-.15-1.26-.24-1.88-.38-2.46-.78-4.75-1.15-6.84-.74-4.16-1.35-7.53-1.77-9.89-.2-1.15-.36-2-.47-2.69l-.12-.7A.87.87,0,0,1,485.59,380.08Z" style="fill:#455a64"></path><path d="M510.74,341.59a2.94,2.94,0,0,1,.56.51,20.62,20.62,0,0,1,1.38,1.56A29.68,29.68,0,0,1,518.59,356c.19.86.3,1.56.36,2.05a2.74,2.74,0,0,1,0,.76c-.06,0-.23-1.06-.66-2.75a34.6,34.6,0,0,0-5.86-12.18C511.42,342.44,510.69,341.63,510.74,341.59Z" style="fill:#455a64"></path><path d="M531.86,411.52a3.29,3.29,0,0,1,.11-.72c.1-.46.26-1.12.49-1.92a40,40,0,0,1,5.68-11.73c.49-.68.9-1.22,1.2-1.57a3.07,3.07,0,0,1,.5-.54s-.56.87-1.47,2.27A49.27,49.27,0,0,0,532.72,409C532.2,410.54,531.92,411.53,531.86,411.52Z" style="fill:#455a64"></path><path d="M564.38,408.23c.06,0,.33.75.9,1.93a22.24,22.24,0,0,0,6.34,7.88c1,.81,1.73,1.24,1.69,1.29s-.2-.06-.52-.24a12,12,0,0,1-1.33-.83,19,19,0,0,1-6.43-8,14.19,14.19,0,0,1-.53-1.47C564.39,408.44,564.35,408.24,564.38,408.23Z" style="fill:#455a64"></path><path d="M469,459.87c-11.18-.34-14,.08-25.19-.26-2.73-.08-12.65.47-15-1-2.11-1.33-4.8-2.55-5.4-5-1-4.07,0-8.73,3.75-11.37a9.13,9.13,0,0,1,4.36-1.6c6.59-.66,12.73,4,19.3,2.46,1.77-.42,3.36-1.45,5.12-1.91a11.37,11.37,0,0,1,7.76,1.08c2.39,1.18,2.94,1.37,2.94,1.37l11.67-4.22,4.1,20.47Z" style="fill:#455a64"></path><path d="M478.4,434.61l-6.13,2.15A1.94,1.94,0,0,0,471,439L476.26,461a2,2,0,0,0,2.14,1.47l6.27-.84a1.93,1.93,0,0,0,1.63-2.35L480.93,436A1.94,1.94,0,0,0,478.4,434.61Z" style="fill:#455a64"></path><path d="M476.42,461.83a21.48,21.48,0,0,1-1.22-3.28c-.66-2.05-1.52-4.91-2.3-8.11s-1.3-6.15-1.6-8.29c-.15-1.07-.25-1.94-.3-2.54a3.75,3.75,0,0,1,0-.94,25.94,25.94,0,0,1,.7,3.42c.39,2.12,1,5,1.75,8.22s1.57,6.06,2.14,8.13A26,26,0,0,1,476.42,461.83Z" style="fill:#263238"></path><path d="M472.12,441.83a8.26,8.26,0,0,1,4.63-2.2,8.35,8.35,0,0,1,5.11.44,23.29,23.29,0,0,0-5,.09A22.94,22.94,0,0,0,472.12,441.83Z" style="fill:#263238"></path><path d="M473,450.12a22.38,22.38,0,0,1,5.16-1.74,21.89,21.89,0,0,1,5.37-.94,38,38,0,0,1-5.24,1.45A37,37,0,0,1,473,450.12Z" style="fill:#263238"></path><path d="M476,458.69a13.17,13.17,0,0,0,9.24-4.08c.05,0-.23.57-.9,1.28a9.82,9.82,0,0,1-6.79,3A3.27,3.27,0,0,1,476,458.69Z" style="fill:#263238"></path><polygon points="514.26 416.59 513.24 423.43 494.44 432.81 492.1 418.56 514.26 416.59" style="fill:#455a64"></polygon><path d="M489.21,413l1.18,6.51a2,2,0,0,0,2.09,1.62l22.9-1.78a2,2,0,0,0,1.83-1.92l.16-6.43a2,2,0,0,0-2.11-2L491,410.69A2,2,0,0,0,489.21,413Z" style="fill:#455a64"></path><path d="M516.27,419.34a21.59,21.59,0,0,1-3.49.7c-2.17.35-5.19.75-8.53,1s-6.39.33-8.59.29c-1.1,0-2-.05-2.61-.1a3.12,3.12,0,0,1-.95-.12,28,28,0,0,1,3.55-.16c2.2-.06,5.22-.18,8.55-.45s6.35-.61,8.53-.86A26.89,26.89,0,0,1,516.27,419.34Z" style="fill:#263238"></path><path d="M495.46,420.47a10,10,0,0,1-.21-10.07,15.78,15.78,0,0,0,.21,10.07Z" style="fill:#263238"></path><path d="M504,420.88a22.46,22.46,0,0,1-.93-5.47,23.11,23.11,0,0,1-.09-5.55,37.74,37.74,0,0,1,.63,5.5A39.26,39.26,0,0,1,504,420.88Z" style="fill:#263238"></path><path d="M513,419.23a18,18,0,0,0-.32-5.23,18.29,18.29,0,0,0-2.3-4.72s.53.33,1.14,1.11a9.93,9.93,0,0,1,1.68,3.47,9.74,9.74,0,0,1,.25,3.84A3.31,3.31,0,0,1,513,419.23Z" style="fill:#263238"></path><path d="M578.61,281.52c2.3,8.4.35,19.63,2.63,26.38s3.93,14.23,1.35,20.87l-3.54-7.84A9.91,9.91,0,0,1,569.58,335c-6.72-13.71-8.76-29.69-2.83-43.77l4.73,3.32,4.12-1.77Z" style="fill:#263238"></path><path d="M613.29,307l-.63-8L611,289l-2.51-8.24s-.51-.78-1.51,0,.42,5.23.42,5.23l.54,3.43s-.34,2.73-.56,2.53-1.39-4.79-1.39-4.79l-3-9.8a1.34,1.34,0,0,0-1.76-.51c-.66.29-1,1.33-.76,2.81s1.17,3.9,1.32,4.74,1.24,5.64,1.24,5.64l-4.58-10.83s-1-3.57-2.48-2.89-.17,3.19,0,4.32,3.21,8.5,3.25,10.65-.4,1.12-.4,1.12l-2.25-6.11c-1-2.69-2.21-4.18-3.43-4.25s1.08,6.16,1.08,6.16l3,8.74-.2,2.9-2.27-2.35s-.42-3.35-2.67-4.53-2.62.46-2.62.46L594.81,306c1.16,2,7.6,5.51,7.6,5.51l2.48,12.93,13.46-2.26Z" style="fill:#ffbe9d"></path><path d="M608.11,302.83a14.56,14.56,0,0,1-1.94-1.3,7.32,7.32,0,0,0-5.1-1.49,3.9,3.9,0,0,0-2.31,1.13l-.2.22-.22-.24c-1-1-2-1.91-2.62-2.56s-1-1.09-.93-1.14a7.63,7.63,0,0,1,1.16.88c.7.61,1.7,1.35,2.82,2.49l-.42,0a4.35,4.35,0,0,1,2.64-1.35,6.08,6.08,0,0,1,3.19.41,9.58,9.58,0,0,1,2.23,1.33A6.9,6.9,0,0,1,608.11,302.83Z" style="fill:#eb996e"></path><polygon points="610.05 353.3 602.85 313.02 613.75 308.27 628.46 352.67 610.05 353.3" style="fill:#ffbe9d"></polygon><path d="M611.07,353.67a9.11,9.11,0,0,1-.48-1.62c-.28-1.06-.66-2.59-1.1-4.49-.89-3.79-2-9.06-3.21-14.89s-2.17-11.12-2.86-15l-.79-4.55a12.21,12.21,0,0,1-.22-1.68,10.26,10.26,0,0,1,.42,1.64c.24,1.16.56,2.68.95,4.52.79,3.9,1.85,9.14,3,14.93s2.26,11,3.06,14.91c.38,1.85.7,3.37.93,4.52A11.59,11.59,0,0,1,611.07,353.67Z" style="fill:#eb996e"></path></g><g id="freepik--character-1--inject-172"><path d="M180.52,331l85.22-2.12a9.77,9.77,0,0,1,4,.75c3.18,1.36,8.89,4.83,12.81,13.15,5.69,12.08,32.18,63,32.18,63L288,419.48l-32.86-61-101.27-8.6,1.17-8.1Z" style="fill:#263238"></path><path d="M280,408.76l14,24,.93,6.06a6.8,6.8,0,0,0,7.74,5.68l42.5-6.53a3.3,3.3,0,0,0,2.62-4.54,2.88,2.88,0,0,0-2-1.65c-3.56-.9-31-11-31-11l-11.44-22.91Z" style="fill:#ebebeb"></path><path d="M305.88,443.7c-.09,0-.31-.83-.95-2.08a12.34,12.34,0,0,0-8.27-6.49c-1.36-.32-2.25-.34-2.25-.43a5.25,5.25,0,0,1,2.33,0,11.38,11.38,0,0,1,8.55,6.71A5.27,5.27,0,0,1,305.88,443.7Z" style="fill:#263238"></path><path d="M334.52,439.58a3.58,3.58,0,0,1-.68-1.59,7.36,7.36,0,0,1,.21-4.18,10.16,10.16,0,0,1,2.21-3.53c.74-.77,1.27-1.16,1.32-1.11s-.38.55-1,1.37a12.63,12.63,0,0,0-2,3.46,8.24,8.24,0,0,0-.35,3.91A9.61,9.61,0,0,1,334.52,439.58Z" style="fill:#263238"></path><path d="M277.86,412.32l4.49,6.76a2.42,2.42,0,0,0,3.14.8l24.92-13.11a2.44,2.44,0,0,0,1.12-3l-2.95-7.32a2.42,2.42,0,0,0-3.35-1.25l-26.47,13.68A2.42,2.42,0,0,0,277.86,412.32Z" style="fill:#e0e0e0"></path><path d="M311.39,406.31a24.36,24.36,0,0,1-3.59,2.48c-2.27,1.45-5.47,3.37-9.11,5.29s-7,3.48-9.53,4.5c-1.24.52-2.26.91-3,1.15a4.35,4.35,0,0,1-1.14.33,32.83,32.83,0,0,1,3.93-1.91c2.44-1.13,5.78-2.73,9.4-4.65s6.85-3.77,9.18-5.11A31.25,31.25,0,0,1,311.39,406.31Z" style="fill:#263238"></path><path d="M288.52,417.69c-.07.14-2.59-1.6-4.08-4.93s-1.2-6.35-1.05-6.31.19,2.89,1.65,6S288.66,417.54,288.52,417.69Z" style="fill:#263238"></path><path d="M297.78,413.69a40.57,40.57,0,0,1-5.93-10.86c.16-.07,1.44,2.38,3.08,5.37A45.21,45.21,0,0,1,297.78,413.69Z" style="fill:#263238"></path><path d="M307.71,407.76c-.2.05-.67-2.94-2.9-5.74s-5-4-4.89-4.19a4.18,4.18,0,0,1,1.83.7,12,12,0,0,1,3.58,3.08,12.3,12.3,0,0,1,2.14,4.21A4.35,4.35,0,0,1,307.71,407.76Z" style="fill:#263238"></path><path d="M95,238.56a89.48,89.48,0,0,1-3.84-14.45,31.17,31.17,0,0,1,1-14.81c.25-.72,2.38-5.51,3.11-5.44.53,0-.77,4.51-.5,5,2.59,4.44,3.34,9.8,3,15A69.32,69.32,0,0,1,95,238.56" style="fill:#263238"></path><path d="M108.61,280.22a14.07,14.07,0,0,1-13.74-14.08l-.58-46.65c-.55-12.53,6.09-23.3,18.28-23.51l1.13.05a22.1,22.1,0,0,1,20.88,21.51c.42,10.87.74,22.87.44,28.68-.63,12-12.4,13.39-12.4,13.39s0,2.79,0,6.32a14.06,14.06,0,0,1-14,14.29Z" style="fill:#c78976"></path><path d="M122.62,259.61a27.67,27.67,0,0,1-15-5.28s3.29,9.2,15,8.61Z" style="fill:#b66955"></path><path d="M130.27,228.23a1.7,1.7,0,0,1-1.68,1.67,1.63,1.63,0,0,1-1.66-1.63,1.7,1.7,0,0,1,1.68-1.66A1.62,1.62,0,0,1,130.27,228.23Z" style="fill:#263238"></path><path d="M131.88,222.75c-.21.21-1.44-.8-3.24-.87s-3.15.79-3.33.56.13-.5.73-.91a4.45,4.45,0,0,1,2.68-.72,4.25,4.25,0,0,1,2.56,1C131.82,222.24,132,222.65,131.88,222.75Z" style="fill:#263238"></path><path d="M114,228.23a1.69,1.69,0,0,1-1.68,1.67,1.62,1.62,0,0,1-1.65-1.63,1.68,1.68,0,0,1,1.67-1.66A1.61,1.61,0,0,1,114,228.23Z" style="fill:#263238"></path><path d="M114.26,222.43c-.22.21-1.45-.8-3.24-.87s-3.15.79-3.34.56.13-.5.73-.91a4.45,4.45,0,0,1,2.68-.72,4.31,4.31,0,0,1,2.57,1C114.19,221.92,114.36,222.33,114.26,222.43Z" style="fill:#263238"></path><path d="M120.13,236.9a11.25,11.25,0,0,1,2.94-.42c.46,0,.9-.1,1-.42a2.47,2.47,0,0,0-.25-1.41c-.39-1.16-.79-2.38-1.21-3.65-1.68-5.2-2.88-9.46-2.67-9.53s1.73,4.09,3.41,9.28c.4,1.28.78,2.51,1.15,3.67a2.8,2.8,0,0,1,.16,1.87,1.14,1.14,0,0,1-.78.65,2.83,2.83,0,0,1-.78.08A11.34,11.34,0,0,1,120.13,236.9Z" style="fill:#263238"></path><path d="M115.07,216.67c-.26.47-2-.1-4.11-.24s-3.9.12-4.09-.37c-.09-.24.29-.65,1-1a7,7,0,0,1,6.25.47C114.87,216,115.19,216.45,115.07,216.67Z" style="fill:#263238"></path><path d="M132.18,217.32c-.38.41-1.83-.07-3.59-.13s-3.26.19-3.59-.26c-.15-.22.1-.63.76-1a5.87,5.87,0,0,1,5.79.31C132.16,216.68,132.35,217.12,132.18,217.32Z" style="fill:#263238"></path><path d="M94.89,228.43c-.2-.09-7.94-2.78-8,5.45s8,6.61,8,6.37S94.89,228.43,94.89,228.43Z" style="fill:#c78976"></path><path d="M92.45,237.11s-.14.1-.38.21a1.31,1.31,0,0,1-1,0c-.84-.33-1.54-1.71-1.57-3.2a5,5,0,0,1,.41-2A1.66,1.66,0,0,1,90.93,231a.71.71,0,0,1,.82.4c.11.24,0,.4.1.41s.17-.13.11-.47a.93.93,0,0,0-.31-.52,1,1,0,0,0-.77-.22,2,2,0,0,0-1.47,1.26,5,5,0,0,0-.5,2.29c0,1.66.84,3.22,2,3.58a1.47,1.47,0,0,0,1.27-.21C92.43,237.31,92.48,237.13,92.45,237.11Z" style="fill:#b66955"></path><path d="M129.41,203.91c1.3-.74-2.59-5-5.77-6.54-4.81-2.25-12.15-3.64-16.59-2.34-5.34,1.55-9.78,4.28-12.46,9.28a33,33,0,0,0-3.54,16.53,10,10,0,0,0,1.12,5c1.12,1.82,3.26,3,3.17,5.47a3.46,3.46,0,0,0,.83,2.52c1.46,1.6,3.25.1,4.08-1.41,1.76-3.23,2-7.07,2.11-10.77a24.76,24.76,0,0,0-.5-7.83c-.39-1.37-1-2.67-1.34-4.06a5.11,5.11,0,0,1,.57-4.11,6.39,6.39,0,0,1,.65-.67,8.18,8.18,0,0,1,8.28-1.62c4.51,1.64,12.21,4.1,14.22,2.52,2.89-2.26,3.58-3.73,3.58-3.73Z" style="fill:#263238"></path><path d="M120.44,242.28c0,.12-.32.43-1.06.6a4.3,4.3,0,0,1-2.9-.46,4.4,4.4,0,0,1-2-2.17c-.27-.71-.23-1.19-.1-1.22.28-.09.87,1.56,2.56,2.48S120.36,242,120.44,242.28Z" style="fill:#263238"></path><path d="M127.82,350.33l-37.63-8.27L66,282.12s-32.32,7.17-37.65,25.23C23.77,323,14.24,392,35.89,434.5a32.7,32.7,0,0,0,29.18,17.73H229.72A40.84,40.84,0,0,0,270.3,416a179.47,179.47,0,0,0,1.44-21.39l-26.43-20.3Z" style="fill:#455a64"></path><path d="M104.17,270.47c0,1.09,8.55,4.62,12.42,3.07,5.89-2.35,5.84-6.25,5.84-6.25L125,270,157.79,320,182.15,336l-39,12.34-40.87-46.95Z" style="fill:#f5f5f5"></path><path d="M93.84,253.71,93,255.32l-3.89,7.25L72.9,272.9l33.28,39.56,15.2,35.91,36.41,11.4s-17.32-26.64-22.71-40.26-5.93-13-10.84-22.95a226.07,226.07,0,0,1-8.9-21.64Z" style="fill:#FF725E"></path><path d="M171.83,325,185,336l-30.58-12.64-19.17-26.83s-6.83-15.15-9.18-20.58c-2.47-5.71-3.76-9-3.76-9l.13-4.15,9,8.38,8.08,2.41L153,295Z" style="fill:#FF725E"></path><path d="M175.81,275.33l.56-8.61-.19-11-1.42-9.2s-.43-.91-1.6-.27-.36,5.66-.36,5.66l0,3.75s-.78,2.87-1,2.62-.75-5.34-.75-5.34L169.4,242a1.44,1.44,0,0,0-1.81-.81c-.75.2-1.27,1.27-1.23,2.88s.64,4.36.68,5.27.46,6.23.46,6.23l-3.24-12.29s-.54-4-2.21-3.47-.67,3.39-.64,4.62,2.13,9.59,1.85,11.89-.61,1.13-.61,1.13l-1.47-6.87c-.64-3-1.72-4.81-3-5.07s.2,6.75.2,6.75l1.86,9.8-.65,3.07-2.07-2.86s.06-3.65-2.16-5.25-2.88.09-2.88.09l3.75,14.27c.93,2.34,7.68,6.28,7.68,6.28l.56,14.28s14.15.18,14.5-.24S175.81,275.33,175.81,275.33Z" style="fill:#c78976"></path><path d="M170.92,270.05a14.5,14.5,0,0,1-1.88-1.69,7.94,7.94,0,0,0-5.21-2.37,4.23,4.23,0,0,0-2.65.86l-.25.2-.2-.28c-.88-1.26-1.84-2.36-2.41-3.15s-.88-1.32-.81-1.36a9.36,9.36,0,0,1,1.1,1.12c.66.76,1.61,1.7,2.64,3.09l-.45-.08a4.69,4.69,0,0,1,3-1,6.54,6.54,0,0,1,3.35.93,10.36,10.36,0,0,1,2.19,1.76A7.57,7.57,0,0,1,170.92,270.05Z" style="fill:#b66955"></path><path d="M137.88,273.18s11.33,1.37,17.26,14.25c2.63,5.71,8.79,13.89,8.79,13.89l-1-15.62h16.73s2.6,30.87,1.92,32.75-9.36,11-9.36,11L153.33,316Z" style="fill:#FF725E"></path><path d="M192.12,286.49l-18.39,30.65,19.25-.57,17-28.39a1.64,1.64,0,0,0-1.41-2.48h-15A1.62,1.62,0,0,0,192.12,286.49Z" style="fill:#263238"></path><path d="M121.38,321.15l46-5.48,7.74-13.55,6.06-3.33a3,3,0,0,1,3.24.2l.57.42,6-.58,4.65,2.71v2.71l-4.9-.9L186,304.89s3.06.32,3.45,2.65-1.17,2.37-1.17,2.37.78,4,1,4.59a9.24,9.24,0,0,1-.58,6.65c-1.55,2.64-17,6.71-17,6.71l-50.29,20.51Z" style="fill:#c78976"></path><path d="M73.89,272.07c-1,.64-14.25,9.82-12.35,24.38s30.71,47.49,36.73,48.12l23.11,3.8V321.15l-11.08-.64L95.74,292Z" style="fill:#FF725E"></path><g style="opacity:0.30000000000000004"><path d="M228.47,371.19a132.71,132.71,0,0,0,43.36,36.6V388.26L240.68,366.1Z"></path></g><path d="M151.6,343.25s90.18-9,94.56-8.68c8.09.67,23.94,14.84,50.41,32.6a247.19,247.19,0,0,1,37,30.51L325.14,417s-62.21-22.34-69.79-29-22.77-16.35-22.77-16.35l-32.66.62-25.85,2.28a38,38,0,0,1-33.52-14.75l-10-13.11Z" style="fill:#263238"></path><path d="M121.38,319.83a4.25,4.25,0,0,1-.83.08l-2.33.09-8.28.18h-.12l-.07-.09c-1.74-2.34-3.73-5-5.85-7.87-3.49-4.72-6.63-9-8.87-12.13l-2.65-3.71a10.17,10.17,0,0,1-.91-1.41,10.73,10.73,0,0,1,1.08,1.29l2.77,3.61c2.33,3.06,5.51,7.32,9,12l5.8,7.9-.18-.09h8.28l2.33,0A3.22,3.22,0,0,1,121.38,319.83Z" style="fill:#263238"></path><path d="M115.76,278.52a4,4,0,0,1-.45-.82l-1.14-2.39.24,0a30.08,30.08,0,0,0-2.23,3.84,34.13,34.13,0,0,1-2.9,5.1l-.18.26-.2-.25c-1.5-1.84-3.21-3.81-5.05-5.82-4-4.39-7.89-8.18-10.64-11-1.33-1.34-2.42-2.46-3.25-3.3a10.32,10.32,0,0,1-1.14-1.27,11.51,11.51,0,0,1,1.28,1.12l3.36,3.19c2.82,2.71,6.72,6.47,10.77,10.87,1.85,2,3.56,4,5,5.87h-.39a36.4,36.4,0,0,0,2.93-5,26.49,26.49,0,0,1,2.36-3.83l.15-.2.1.23,1,2.44A5.49,5.49,0,0,1,115.76,278.52Z" style="fill:#263238"></path><path d="M131.53,271.56a4.61,4.61,0,0,1,.69,1.37,35.16,35.16,0,0,1,1.21,3.83l.32,1.12L133,277a29.92,29.92,0,0,0-3.4-3.58c-1.07-1-2.12-1.9-3.07-2.73l.39-.15a40.84,40.84,0,0,0-.14,4.57,5.11,5.11,0,0,1-.23,1.79c-.06,0,0-.66-.07-1.78a31.15,31.15,0,0,1,0-4.64l0-.44.35.29c1,.81,2,1.71,3.12,2.71a27.09,27.09,0,0,1,3.41,3.68l-.41.2c-.4-1.61-.72-2.94-1-3.86A9.17,9.17,0,0,1,131.53,271.56Z" style="fill:#263238"></path><path d="M219,371.68c-1.93-9.18-5.89-18.57-13.71-23.74-5.94-3.92-13.29-4.89-20.35-5.76L37.12,324c-1.32,23.29,8.64,52.27,18.81,73.26,1.58,3.26,3.41,6.59,6.43,8.59,3.68,2.42,8.4,2.4,12.81,2.29,49.71-1.27,99.44-3.38,148.86-8.82C221.25,390.37,220.89,380.86,219,371.68Z" style="fill:#455a64"></path><path d="M232.58,371.67l.42.27,1.24.84,4.76,3.28c4.13,2.9,10.21,7.07,17.65,12.61.46.34.91.74,1.41,1l1.52.93c1.09.54,2.18,1.13,3.34,1.66l3.55,1.62,3.73,1.62c5.09,2.17,10.6,4.43,16.48,6.78,11.76,4.7,24.95,9.8,39.19,15.18l-.31.14c2.48-6.19,5.11-12.73,7.8-19.42l.05.27-10.7-10.73v0c-2.51-2.15-5.2-4.42-8-6.67A561.78,561.78,0,0,0,263.35,344h0a49,49,0,0,0-7.79-5.38,38.2,38.2,0,0,0-8.32-3.56c-.71-.19-1.43-.34-2.14-.51l-2.14-.32-2.13-.11H230.44l-27.7-.05-18-.07L180,334l-1.22,0a3.33,3.33,0,0,1-.42,0l.42,0H180l4.76,0,18-.07,27.7,0H240.8l2.17.11,2.19.33c.71.17,1.44.32,2.17.51a39.39,39.39,0,0,1,8.43,3.58,51.33,51.33,0,0,1,7.87,5.42l0,0a553.42,553.42,0,0,1,51.49,37.08c2.76,2.25,5.46,4.53,8,6.67h0l10.7,10.73.12.12-.07.16L326,417.83l-.09.22-.23-.08c-14.24-5.4-27.43-10.53-39.18-15.26-5.87-2.36-11.38-4.64-16.46-6.83l-3.73-1.63-3.56-1.64c-1.15-.54-2.25-1.14-3.34-1.68l-1.56-1c-.51-.32-.94-.71-1.41-1.06-7.4-5.56-13.45-9.77-17.56-12.71l-4.71-3.35L233,372Z" style="fill:#455a64"></path><path d="M91.47,330.7a12.41,12.41,0,0,1-1.74-.12L85,330.07c-4-.45-9.48-1.14-15.54-2S57.93,326.42,54,325.73c-2-.35-3.58-.64-4.67-.88a11.34,11.34,0,0,1-1.7-.42,12.9,12.9,0,0,1,1.73.22l4.7.72c4,.59,9.44,1.38,15.5,2.21l15.52,2.13,4.7.67A9.89,9.89,0,0,1,91.47,330.7Z" style="fill:#263238"></path><path d="M165,316a7.79,7.79,0,0,1-1.09-1l-2.85-2.89c-1.19-1.25-2.62-2.66-4.17-4.39-.71-.91-1.34-1.91-2.08-2.89a18.63,18.63,0,0,1-1.93-3.35c-1.1-2.39-1.93-4.76-2.69-6.9s-1.4-4.07-2-5.67-1.15-2.87-1.58-3.72-.7-1.31-.67-1.33.1.09.25.3a10.82,10.82,0,0,1,.59.93,32.54,32.54,0,0,1,1.75,3.69c.66,1.59,1.36,3.51,2.13,5.64s1.61,4.48,2.7,6.84a19.9,19.9,0,0,0,1.87,3.27c.74,1,1.37,2,2,2.9,1.45,1.66,2.91,3.15,4.05,4.42l2.74,3A8.3,8.3,0,0,1,165,316Z" style="fill:#263238"></path><path d="M168.68,311.15a47.3,47.3,0,0,1-3.19-6.26,47.3,47.3,0,0,1-2.71-6.48,46.6,46.6,0,0,1,3.18,6.26A48.2,48.2,0,0,1,168.68,311.15Z" style="fill:#263238"></path><path d="M92.23,452.23s-.06-.1-.15-.29-.23-.5-.4-.85c-.36-.79-.86-1.9-1.51-3.31l-1.07-2.39c-.38-.88-.74-1.86-1.15-2.9-.8-2.1-1.8-4.45-2.65-7.14l-1.41-4.2c-.48-1.46-.87-3-1.34-4.61-1-3.17-1.73-6.64-2.58-10.27A168.73,168.73,0,0,1,76.63,368c.34-3.72.61-7.25,1.14-10.53.24-1.64.41-3.24.69-4.75s.56-3,.82-4.35c.46-2.79,1.13-5.25,1.63-7.44.27-1.08.5-2.1.74-3s.52-1.76.74-2.52l1-3.48.28-.9a1.2,1.2,0,0,1,.11-.3,1.31,1.31,0,0,1-.06.32l-.23.91c-.23.84-.54,2-.94,3.5L81.9,338c-.24.93-.45,1.95-.7,3-.48,2.19-1.12,4.65-1.56,7.44-.25,1.38-.51,2.83-.78,4.34s-.43,3.11-.67,4.75c-.5,3.27-.75,6.8-1.08,10.5a187.41,187.41,0,0,0,0,24.2,189.59,189.59,0,0,0,3.36,23.95c.84,3.63,1.58,7.09,2.53,10.26.45,1.59.83,3.14,1.31,4.6s.93,2.86,1.37,4.2c.82,2.7,1.8,5,2.57,7.15.4,1.05.75,2,1.11,2.91s.72,1.69,1,2.41L91.77,451l.36.88A1,1,0,0,1,92.23,452.23Z" style="fill:#263238"></path><path d="M90.67,405.29a32.92,32.92,0,0,1-5.81,0,33.35,33.35,0,0,1-5.8-.53,33,33,0,0,1,5.82,0A33,33,0,0,1,90.67,405.29Z" style="fill:#263238"></path><path d="M89.32,412a18.15,18.15,0,0,1-6-1.55,18.55,18.55,0,0,1-5.38-3c.09-.14,2.44,1.29,5.57,2.54S89.36,411.88,89.32,412Z" style="fill:#263238"></path><path d="M76.38,365.65a7.61,7.61,0,0,1-3.84,1.18,7.73,7.73,0,0,1-4-.42c0-.15,1.79.12,3.95-.1S76.33,365.51,76.38,365.65Z" style="fill:#263238"></path><path d="M79.33,363.43a7.88,7.88,0,0,1-7.57-3.21,22.81,22.81,0,0,0,3.54,2.19A22.3,22.3,0,0,0,79.33,363.43Z" style="fill:#263238"></path><path d="M306,409.87l25,12,4.16,4.49a6.8,6.8,0,0,0,9.6.38l31.56-29.2a3.31,3.31,0,0,0-.37-5.23,2.86,2.86,0,0,0-2.6-.23c-3.45,1.23-31.81,8.25-31.81,8.25l-22.3-12.58Z" style="fill:#ebebeb"></path><path d="M347,424.33c-.06.07-.72-.51-2-1.18a12.32,12.32,0,0,0-10.49-.75c-1.31.49-2,1-2.1.89a5.48,5.48,0,0,1,1.95-1.26,11.35,11.35,0,0,1,10.85.77A5.29,5.29,0,0,1,347,424.33Z" style="fill:#263238"></path><path d="M368.39,404.88c0,.06-.64-.22-1.45-.93a7.4,7.4,0,0,1-2.16-3.58,10.14,10.14,0,0,1-.15-4.16,4.58,4.58,0,0,1,.47-1.66,6.55,6.55,0,0,1-.07,1.7,12.47,12.47,0,0,0,.29,4,8.23,8.23,0,0,0,1.9,3.43C367.92,404.41,368.45,404.81,368.39,404.88Z" style="fill:#263238"></path><path d="M306.18,414l7.51,3.08a2.41,2.41,0,0,0,3.05-1.1l13.31-24.81a2.43,2.43,0,0,0-.78-3.15l-6.54-4.42a2.42,2.42,0,0,0-3.48.85L305,410.63A2.43,2.43,0,0,0,306.18,414Z" style="fill:#e0e0e0"></path><path d="M330.61,390.27a25.6,25.6,0,0,1-1.59,4.07c-1.07,2.47-2.65,5.85-4.58,9.48s-3.88,6.82-5.38,9.06c-.75,1.13-1.37,2-1.82,2.62s-.72.93-.76.9a36.21,36.21,0,0,1,2.18-3.77c1.39-2.3,3.26-5.5,5.19-9.12s3.56-6.95,4.75-9.37A30,30,0,0,1,330.61,390.27Z" style="fill:#263238"></path><path d="M318,412.5c0,.16-3,.13-6.14-1.79s-4.55-4.6-4.39-4.65,1.76,2.29,4.74,4.08S318.06,412.3,318,412.5Z" style="fill:#263238"></path><path d="M323.45,404a26.17,26.17,0,0,1-5.71-2.42c-3-1.58-5.36-3.13-5.27-3.27a46.59,46.59,0,0,1,5.55,2.73C321.05,402.62,323.52,403.85,323.45,404Z" style="fill:#263238"></path><path d="M328.36,393.53c-.13.16-2.19-2.06-5.61-3.13s-6.37-.53-6.39-.73a4,4,0,0,1,1.9-.45,12.2,12.2,0,0,1,8.82,2.84C328,392.85,328.42,393.48,328.36,393.53Z" style="fill:#263238"></path></g></svg>